# Blender 4.0.1
# www.blender.org
mtllib left_x_button.mtl
o left_x_button
v -0.000898 0.007216 0.056442
v -0.000238 0.007648 0.057602
v -0.000721 0.005782 0.057424
v -0.000086 0.006260 0.058589
v -0.007138 0.006868 0.054533
v -0.008173 0.005612 0.055962
v -0.008365 0.007194 0.055112
v -0.006974 0.005296 0.055407
v -0.009269 0.006078 0.056796
v -0.009389 0.007620 0.055973
v -0.010127 0.008118 0.057053
v -0.010051 0.006597 0.057839
v -0.010526 0.008651 0.058278
v -0.010434 0.007153 0.059058
v -0.010573 0.009190 0.059575
v -0.010532 0.007750 0.060344
v -0.010260 0.009688 0.060841
v -0.010291 0.008275 0.061569
v -0.009600 0.010120 0.062000
v -0.009654 0.008754 0.062734
v -0.008643 0.010451 0.062968
v -0.008711 0.009104 0.063710
v -0.007459 0.010659 0.063677
v -0.007552 0.009334 0.064395
v -0.006119 0.010734 0.064089
v -0.006212 0.009441 0.064830
v -0.001106 0.009717 0.062472
v -0.002125 0.010139 0.063326
v -0.001111 0.008435 0.063370
v -0.002150 0.008850 0.064159
v -0.000369 0.009220 0.061392
v -0.000330 0.007916 0.062327
v 0.000029 0.008682 0.060159
v 0.000056 0.007340 0.061120
v 0.000076 0.008145 0.058866
v 0.000155 0.006786 0.059814
v -0.000336 0.007738 0.057588
v -0.000982 0.007316 0.056453
v -0.005176 0.009228 0.059059
v -0.001918 0.006990 0.055503
v -0.003082 0.006785 0.054803
v -0.004393 0.006712 0.054403
v -0.005762 0.006778 0.054327
v -0.007096 0.006977 0.054582
v -0.008304 0.007297 0.055150
v -0.009304 0.007715 0.055993
v -0.010027 0.008202 0.057054
v -0.010425 0.008727 0.058258
v -0.010470 0.009252 0.059526
v -0.010158 0.009742 0.060770
v -0.009512 0.010164 0.061905
v -0.008576 0.010490 0.062855
v -0.007413 0.010696 0.063554
v -0.006102 0.010768 0.063955
v -0.004732 0.010702 0.064031
v -0.003398 0.010503 0.063775
v -0.002190 0.010183 0.063208
v -0.001191 0.009766 0.062364
v -0.000467 0.009278 0.061304
v -0.000069 0.008754 0.060100
v -0.000025 0.008228 0.058832
v -0.001664 0.005411 0.056458
v -0.001856 0.006884 0.055474
v -0.002825 0.005155 0.055720
v -0.003042 0.006673 0.054760
v -0.004166 0.005047 0.055284
v -0.004380 0.006598 0.054350
v -0.005586 0.005087 0.055161
v -0.005777 0.006665 0.054271
v -0.004720 0.010670 0.064168
v -0.004795 0.009400 0.064951
v -0.003409 0.009213 0.064696
v -0.003357 0.010466 0.063906
vn 0.7588 0.1384 -0.6365
vn 0.8590 0.2489 -0.4474
vn 0.8311 -0.2465 -0.4986
vn 0.9514 -0.1148 -0.2859
vn -0.3176 -0.0216 -0.9480
vn -0.5619 -0.4449 -0.6974
vn -0.5316 0.0272 -0.8466
vn -0.3437 -0.4860 -0.8036
vn -0.7565 -0.3531 -0.5505
vn -0.7104 0.1123 -0.6947
vn -0.8301 0.2187 -0.5129
vn -0.9048 -0.2328 -0.3567
vn -0.9032 0.3131 -0.2937
vn -0.9853 -0.1165 -0.1252
vn -0.8996 0.4279 -0.0870
vn -0.9974 0.0220 0.0692
vn -0.8284 0.5490 0.1111
vn -0.9430 0.1738 0.2837
vn -0.7025 0.6485 0.2930
vn -0.8128 0.3036 0.4972
vn -0.5345 0.7195 0.4435
vn -0.6271 0.4006 0.6680
vn -0.3352 0.7604 0.5562
vn -0.4084 0.4623 0.7871
vn -0.1153 0.7858 0.6076
vn -0.1735 0.5064 0.8446
vn 0.6839 0.6631 0.3044
vn 0.5250 0.7223 0.4502
vn 0.7461 0.3716 0.5526
vn 0.5592 0.4380 0.7039
vn 0.8102 0.5709 0.1329
vn 0.9007 0.2639 0.3452
vn 0.8931 0.4484 -0.0355
vn 0.9804 0.1291 0.1488
vn 0.9066 0.3482 -0.2384
vn 0.9985 0.0084 -0.0548
vn 0.4233 0.7739 -0.4711
vn 0.3846 0.7343 -0.5594
vn 0.0659 0.9231 -0.3788
vn 0.3199 0.7007 -0.6377
vn 0.2300 0.6816 -0.6947
vn 0.1266 0.6737 -0.7281
vn 0.0181 0.6803 -0.7327
vn -0.0882 0.6952 -0.7134
vn -0.1876 0.7187 -0.6696
vn -0.2631 0.7552 -0.6004
vn -0.3099 0.8001 -0.5136
vn -0.3496 0.8377 -0.4196
vn -0.3437 0.8815 -0.3238
vn -0.3068 0.9229 -0.2328
vn -0.2536 0.9552 -0.1525
vn -0.1852 0.9792 -0.0827
vn -0.1008 0.9945 -0.0274
vn -0.0034 1.0000 -0.0060
vn 0.0953 0.9953 -0.0162
vn 0.1877 0.9816 -0.0354
vn 0.2711 0.9596 -0.0747
vn 0.3348 0.9316 -0.1413
vn 0.3866 0.8971 -0.2140
vn 0.4412 0.8508 -0.2853
vn 0.4478 0.8103 -0.3781
vn 0.6602 -0.3596 -0.6595
vn 0.6051 0.0472 -0.7948
vn 0.4432 -0.4413 -0.7803
vn 0.4023 -0.0131 -0.9154
vn 0.1944 -0.4921 -0.8485
vn 0.1717 -0.0452 -0.9841
vn -0.0760 -0.5046 -0.8600
vn -0.0763 -0.0440 -0.9961
vn 0.1116 0.7955 0.5956
vn 0.0822 0.5196 0.8505
vn 0.3442 0.4877 0.8023
vn 0.3336 0.7694 0.5447
vt 0.875900 0.468800
vt 0.875900 0.479100
vt 0.862700 0.468800
vt 0.862700 0.479100
vt 0.875900 0.416900
vt 0.862700 0.406700
vt 0.875900 0.406700
vt 0.862700 0.416900
vt 0.862700 0.396200
vt 0.875900 0.396200
vt 0.875900 0.385900
vt 0.862700 0.385900
vt 0.875900 0.375600
vt 0.862700 0.375600
vt 0.875900 0.365200
vt 0.862700 0.365200
vt 0.875900 0.613100
vt 0.862700 0.613100
vt 0.875900 0.603000
vt 0.862700 0.603000
vt 0.875900 0.592600
vt 0.862700 0.592600
vt 0.875900 0.582300
vt 0.862700 0.582300
vt 0.875900 0.572100
vt 0.862700 0.572100
vt 0.875900 0.561700
vt 0.862700 0.561700
vt 0.875900 0.520300
vt 0.875900 0.530500
vt 0.862700 0.520300
vt 0.862700 0.530500
vt 0.875900 0.510000
vt 0.862700 0.510000
vt 0.875900 0.499700
vt 0.862700 0.499700
vt 0.875900 0.489300
vt 0.862700 0.489300
vt 0.728300 0.969100
vt 0.710700 0.954300
vt 0.776900 0.895700
vt 0.697500 0.935400
vt 0.689700 0.913800
vt 0.687700 0.890800
vt 0.691700 0.868200
vt 0.701500 0.847300
vt 0.716300 0.829700
vt 0.735100 0.816500
vt 0.756800 0.808700
vt 0.779700 0.806700
vt 0.802400 0.810700
vt 0.823200 0.820400
vt 0.840900 0.835200
vt 0.854100 0.854100
vt 0.862000 0.875700
vt 0.864000 0.898700
vt 0.860000 0.921400
vt 0.850200 0.942200
vt 0.835400 0.959900
vt 0.816500 0.973100
vt 0.794800 0.981000
vt 0.771800 0.982900
vt 0.749200 0.978900
vt 0.862700 0.458400
vt 0.875900 0.458400
vt 0.862700 0.448100
vt 0.875900 0.448100
vt 0.862700 0.437700
vt 0.875900 0.437700
vt 0.862700 0.427300
vt 0.875900 0.427300
vt 0.875900 0.551300
vt 0.862700 0.551300
vt 0.862700 0.540900
vt 0.875900 0.540900
vt 0.709200 0.955900
vt 0.727300 0.971100
vt 0.699700 0.846100
vt 0.714900 0.828200
vt 0.734200 0.814600
vt 0.756400 0.806500
vt 0.779900 0.804500
vt 0.803200 0.808600
vt 0.824500 0.818500
vt 0.842700 0.833800
vt 0.856200 0.853100
vt 0.864200 0.875300
vt 0.866300 0.898900
vt 0.817700 0.975200
vt 0.837000 0.961700
vt 0.795500 0.983300
vt 0.771900 0.985200
vt 0.748700 0.981100
vt 0.695700 0.936500
vt 0.687600 0.914300
vt 0.685600 0.890800
vt 0.689700 0.867500
vt 0.862200 0.922200
vt 0.852200 0.943600
s 1
usemtl Material__79.003
f 1/1/1 2/2/2 3/3/3
f 2/2/2 4/4/4 3/3/3
f 5/5/5 6/6/6 7/7/7
f 6/6/6 5/5/5 8/8/8
f 7/7/7 9/9/9 10/10/10
f 9/9/9 7/7/7 6/6/6
f 10/10/10 9/9/9 11/11/11
f 11/11/11 9/9/9 12/12/12
f 11/11/11 12/12/12 13/13/13
f 13/13/13 12/12/12 14/14/14
f 15/15/15 13/13/13 14/14/14
f 15/15/15 14/14/14 16/16/16
f 15/17/15 16/18/16 17/19/17
f 17/19/17 16/18/16 18/20/18
f 17/19/17 18/20/18 19/21/19
f 19/21/19 18/20/18 20/22/20
f 19/21/19 20/22/20 21/23/21
f 21/23/21 20/22/20 22/24/22
f 21/23/21 22/24/22 23/25/23
f 23/25/23 22/24/22 24/26/24
f 25/27/25 23/25/23 24/26/24
f 25/27/25 24/26/24 26/28/26
f 27/29/27 28/30/28 29/31/29
f 28/30/28 30/32/30 29/31/29
f 31/33/31 27/29/27 32/34/32
f 27/29/27 29/31/29 32/34/32
f 33/35/33 31/33/31 34/36/34
f 31/33/31 32/34/32 34/36/34
f 35/37/35 33/35/33 36/38/36
f 33/35/33 34/36/34 36/38/36
f 2/2/2 35/37/35 4/4/4
f 35/37/35 36/38/36 4/4/4
f 37/39/37 38/40/38 39/41/39
f 38/40/38 40/42/40 39/41/39
f 40/42/40 41/43/41 39/41/39
f 41/43/41 42/44/42 39/41/39
f 42/44/42 43/45/43 39/41/39
f 43/45/43 44/46/44 39/41/39
f 44/46/44 45/47/45 39/41/39
f 39/41/39 45/47/45 46/48/46
f 39/41/39 46/48/46 47/49/47
f 47/49/47 48/50/48 39/41/39
f 49/51/49 39/41/39 48/50/48
f 50/52/50 39/41/39 49/51/49
f 50/52/50 51/53/51 39/41/39
f 51/53/51 52/54/52 39/41/39
f 53/55/53 39/41/39 52/54/52
f 54/56/54 39/41/39 53/55/53
f 54/56/54 55/57/55 39/41/39
f 55/57/55 56/58/56 39/41/39
f 56/58/56 57/59/57 39/41/39
f 58/60/58 39/41/39 57/59/57
f 39/41/39 58/60/58 59/61/59
f 59/61/59 60/62/60 39/41/39
f 60/62/60 61/63/61 39/41/39
f 61/63/61 37/39/37 39/41/39
f 1/1/1 62/64/62 63/65/63
f 62/64/62 1/1/1 3/3/3
f 63/65/63 64/66/64 65/67/65
f 64/66/64 63/65/63 62/64/62
f 65/67/65 66/68/66 67/69/67
f 66/68/66 65/67/65 64/66/64
f 67/69/67 68/70/68 69/71/69
f 68/70/68 67/69/67 66/68/66
f 69/71/69 8/8/8 5/5/5
f 8/8/8 69/71/69 68/70/68
f 25/27/25 26/28/26 70/72/70
f 70/72/70 26/28/26 71/73/71
f 70/72/70 72/74/72 73/75/73
f 72/74/72 70/72/70 71/73/71
f 73/75/73 30/32/30 28/30/28
f 30/32/30 73/75/73 72/74/72
f 37/39/37 1/76/1 38/40/38
f 1/76/1 37/39/37 2/77/2
f 45/47/45 5/78/5 7/79/7
f 5/78/5 45/47/45 44/46/44
f 7/79/7 46/48/46 45/47/45
f 46/48/46 7/79/7 10/80/10
f 47/49/47 46/48/46 10/80/10
f 47/49/47 10/80/10 11/81/11
f 48/50/48 47/49/47 11/81/11
f 48/50/48 11/81/11 13/82/13
f 48/50/48 15/83/15 49/51/49
f 15/83/15 48/50/48 13/82/13
f 49/51/49 17/84/17 50/52/50
f 17/84/17 49/51/49 15/83/15
f 50/52/50 19/85/19 51/53/51
f 19/85/19 50/52/50 17/84/17
f 21/86/21 51/53/51 19/85/19
f 51/53/51 21/86/21 52/54/52
f 23/87/23 52/54/52 21/86/21
f 52/54/52 23/87/23 53/55/53
f 53/55/53 25/88/25 54/56/54
f 25/88/25 53/55/53 23/87/23
f 57/59/57 27/89/27 58/60/58
f 27/89/27 57/59/57 28/90/28
f 58/60/58 31/91/31 59/61/59
f 31/91/31 58/60/58 27/89/27
f 33/92/33 59/61/59 31/91/31
f 59/61/59 33/92/33 60/62/60
f 61/63/61 33/92/33 35/93/35
f 33/92/33 61/63/61 60/62/60
f 35/93/35 37/39/37 61/63/61
f 37/39/37 35/93/35 2/77/2
f 1/76/1 40/42/40 38/40/38
f 40/42/40 1/76/1 63/94/63
f 63/94/63 41/43/41 40/42/40
f 41/43/41 63/94/63 65/95/65
f 65/95/65 67/96/67 42/44/42
f 65/95/65 42/44/42 41/43/41
f 67/96/67 69/97/69 43/45/43
f 67/96/67 43/45/43 42/44/42
f 69/97/69 5/78/5 44/46/44
f 69/97/69 44/46/44 43/45/43
f 70/98/70 54/56/54 25/88/25
f 54/56/54 70/98/70 55/57/55
f 55/57/55 73/99/73 56/58/56
f 73/99/73 55/57/55 70/98/70
f 73/99/73 57/59/57 56/58/56
f 57/59/57 73/99/73 28/90/28
