# Blender 4.0.1
# www.blender.org
mtllib left_grip.mtl
o left_grip
v 0.004570 -0.011399 0.093903
v 0.004694 -0.011367 0.093801
v 0.005802 -0.009149 0.094862
v 0.005702 -0.009150 0.094989
v 0.003706 -0.012929 0.093102
v 0.003803 -0.012937 0.092972
v 0.006330 0.002992 0.090138
v 0.007003 0.002434 0.087711
v 0.006957 0.002455 0.087654
v 0.006428 0.002945 0.090218
v 0.007373 0.000550 0.085239
v 0.007301 0.000576 0.085134
v 0.007212 0.001686 0.086292
v 0.007277 0.001652 0.086385
v 0.006879 0.002476 0.087602
v 0.006060 0.002824 0.091981
v 0.006193 0.002773 0.092009
v 0.006199 0.003038 0.090060
v 0.006120 0.002112 0.093794
v 0.006270 0.002075 0.093770
v 0.006623 0.000398 0.095471
v 0.006505 0.000386 0.095527
v 0.007035 -0.001367 0.096320
v 0.006922 -0.001399 0.096405
v 0.007291 -0.003187 0.096773
v 0.007201 -0.003221 0.096829
v 0.000717 -0.002160 0.097817
v 0.000695 -0.003823 0.097740
v 0.007140 -0.004712 0.096799
v 0.000351 0.000790 0.096957
v -0.000388 0.003375 0.094491
v 0.007181 -0.001125 0.084206
v 0.007414 0.000524 0.085348
v 0.007223 -0.001159 0.084328
v 0.004965 -0.007694 0.080998
v -0.001459 -0.006915 0.080824
v -0.000382 -0.004606 0.081817
v 0.005996 -0.005546 0.081902
v 0.006064 -0.005648 0.082037
v 0.006805 -0.003329 0.083194
v 0.006851 -0.003419 0.083323
v 0.006101 -0.005749 0.082178
v 0.006727 -0.003239 0.083070
v 0.007108 -0.001094 0.084091
v 0.003806 -0.009863 0.080494
v 0.002861 -0.011262 0.080649
v -0.002792 -0.009171 0.080320
v -0.003785 -0.010588 0.080556
v 0.005025 -0.007800 0.081112
v 0.003858 -0.009973 0.080604
v 0.000093 -0.016243 0.087971
v 0.000190 -0.016219 0.087955
v 0.001708 -0.015502 0.090730
v 0.001815 -0.015480 0.090656
v -0.000563 -0.016187 0.086178
v -0.000503 -0.015665 0.084549
v -0.000356 -0.015629 0.084517
v -0.000424 -0.016155 0.086113
v -0.006768 -0.015989 0.088346
v -0.000034 -0.016266 0.087989
v -0.007318 -0.015948 0.086613
v 0.001764 -0.012705 0.081335
v 0.001803 -0.012794 0.081466
v 0.000677 -0.014064 0.082343
v 0.000753 -0.014101 0.082445
v 0.001919 -0.012499 0.082437
v 0.001053 -0.013648 0.083126
v 0.002828 -0.011340 0.081988
v 0.002972 -0.011429 0.080896
v 0.000571 -0.014027 0.082247
v -0.000025 -0.014992 0.083329
v -0.000140 -0.014960 0.083242
v 0.002738 -0.014452 0.091921
v 0.002640 -0.014436 0.092035
v 0.001571 -0.015520 0.090806
v 0.002807 -0.014466 0.091808
v 0.003869 -0.012944 0.092842
v 0.001847 -0.014703 0.089475
v 0.002655 -0.012754 0.088665
v 0.002864 -0.013631 0.090550
v 0.001663 -0.014092 0.088212
v 0.003594 -0.011242 0.089238
v 0.003856 -0.012186 0.091329
v 0.002485 -0.011867 0.086245
v 0.003579 -0.010144 0.087006
v 0.000849 -0.015262 0.087956
v 0.003599 -0.010191 0.081852
v 0.003880 -0.010084 0.080719
v 0.005053 -0.007908 0.081234
v 0.004603 -0.008400 0.082601
v 0.002910 -0.010969 0.083907
v 0.003873 -0.009338 0.084690
v 0.000461 -0.015176 0.086379
v -0.000317 -0.016121 0.086050
v 0.005517 -0.007261 0.090900
v 0.006212 -0.005036 0.091788
v 0.006465 -0.006063 0.093923
v 0.005691 -0.008330 0.092991
v 0.005459 -0.006217 0.088731
v 0.005838 -0.005043 0.086654
v 0.006238 -0.003969 0.089733
v 0.006445 -0.002920 0.087748
v 0.004583 -0.009417 0.089951
v 0.004736 -0.010432 0.092117
v 0.004529 -0.008361 0.087787
v 0.004918 -0.007383 0.085603
v 0.005606 -0.006406 0.083538
v 0.006434 -0.004088 0.084682
v 0.007061 -0.002501 0.094820
v 0.006958 -0.004027 0.094546
v 0.006595 -0.002926 0.092432
v 0.006753 -0.001633 0.092702
v 0.006293 0.002721 0.092041
v 0.006433 0.001574 0.091803
v 0.006547 -0.002062 0.090544
v 0.006652 -0.001017 0.091039
v 0.006680 -0.001276 0.088575
v 0.006781 -0.000113 0.089200
v 0.007095 -0.000286 0.086703
v 0.007309 0.001617 0.086485
v 0.007054 0.000797 0.087514
v 0.006807 0.001741 0.088858
v 0.006667 0.001043 0.089844
v 0.006542 0.000357 0.091503
v 0.006524 0.001983 0.090424
v 0.006602 0.000955 0.093268
v 0.006666 -0.000239 0.092960
v 0.006389 0.002037 0.093748
v 0.006778 -0.000063 0.094750
v 0.006937 -0.001038 0.094819
v 0.006911 -0.001967 0.085865
v 0.001694 -0.012617 0.081209
v -0.004845 -0.011941 0.081110
v 0.006675 -0.006600 0.096209
v 0.000304 -0.005698 0.097121
v -0.000753 -0.008460 0.095830
v 0.006765 -0.006575 0.096112
v 0.007284 -0.004605 0.096631
v 0.007228 -0.004659 0.096714
v 0.006823 -0.006548 0.096016
v -0.000239 -0.015591 0.084489
v 0.000059 -0.015023 0.083422
v 0.000621 -0.014349 0.084013
v 0.000263 -0.014935 0.084951
v 0.001472 -0.013303 0.085755
v 0.000430 0.003780 0.087893
v -0.000514 0.004525 0.091282
v -0.000609 0.004078 0.092913
v 0.000598 -0.000834 0.097524
v 0.000870 0.002838 0.086417
v 0.001035 0.001689 0.085207
v 0.000807 -0.000096 0.084065
v 0.000365 -0.002162 0.082988
v -0.005967 -0.013316 0.082032
v -0.006856 -0.014407 0.083228
v -0.007291 -0.015424 0.084912
v -0.005201 -0.015170 0.091389
v -0.001855 -0.010691 0.094806
v -0.002905 -0.012472 0.093867
v -0.003995 -0.013997 0.092749
v 0.006709 0.000412 0.095417
v 0.007117 -0.001335 0.096234
v 0.007349 -0.003152 0.096719
v 0.005869 -0.009149 0.094736
v 0.004786 -0.011334 0.093700
v 0.002082 -0.012273 0.083572
v 0.002933 -0.011345 0.080769
vn 0.3513 -0.5617 0.7490
vn 0.6431 -0.5872 0.4914
vn 0.7123 -0.5304 0.4596
vn 0.3984 -0.5320 0.7472
vn 0.3409 -0.6297 0.6980
vn 0.6246 -0.6542 0.4265
vn 0.3707 0.9285 0.0191
vn 0.8556 0.5175 0.0138
vn 0.5061 0.8321 -0.2268
vn 0.7634 0.6362 0.1115
vn 0.8748 0.2938 -0.3853
vn 0.5040 0.5183 -0.6909
vn 0.4848 0.7178 -0.4997
vn 0.8346 0.4976 -0.2365
vn 0.2931 0.8994 -0.3243
vn 0.2655 0.9353 0.2340
vn 0.3434 0.9088 0.2371
vn 0.2687 0.9626 -0.0350
vn 0.2456 0.8222 0.5134
vn 0.3099 0.8118 0.4948
vn 0.3258 0.5945 0.7352
vn 0.2508 0.5866 0.7701
vn 0.5430 0.3728 0.7524
vn 0.3463 0.3584 0.8670
vn 0.5808 0.0968 0.8083
vn 0.3449 0.0849 0.9348
vn 0.1702 0.1086 0.9794
vn 0.1180 -0.1831 0.9760
vn 0.4659 -0.2253 0.8557
vn 0.2250 0.5549 0.8009
vn 0.2193 0.8309 0.5115
vn 0.9053 0.0947 -0.4140
vn 0.9937 0.0713 -0.0867
vn 0.9901 -0.0825 -0.1135
vn 0.4754 0.0622 -0.8776
vn 0.0560 0.2620 -0.9634
vn 0.0706 0.3861 -0.9197
vn 0.5464 0.1652 -0.8211
vn 0.8830 -0.1467 -0.4458
vn 0.8986 -0.0062 -0.4388
vn 0.9759 -0.1883 -0.1099
vn 0.9384 -0.3187 -0.1336
vn 0.5450 0.2597 -0.7972
vn 0.5229 0.3449 -0.7795
vn 0.3899 -0.1325 -0.9113
vn 0.2715 -0.3938 -0.8782
vn 0.0162 -0.0333 -0.9993
vn -0.0165 -0.2969 -0.9548
vn 0.8153 -0.2415 -0.5263
vn 0.6962 -0.3849 -0.6059
vn 0.2109 -0.9774 0.0151
vn 0.5263 -0.8418 -0.1199
vn 0.3167 -0.9099 0.2680
vn 0.6146 -0.7888 -0.0056
vn 0.0392 -0.9847 -0.1701
vn 0.0361 -0.9218 -0.3859
vn 0.1717 -0.9139 -0.3678
vn 0.1547 -0.9662 -0.2064
vn -0.0329 -0.9946 0.0980
vn 0.0650 -0.9943 0.0844
vn -0.0455 -0.9854 -0.1640
vn 0.3841 -0.6784 -0.6264
vn 0.6381 -0.7117 -0.2938
vn 0.3171 -0.7569 -0.5715
vn 0.6144 -0.7365 -0.2829
vn 0.7995 -0.5991 0.0434
vn 0.8084 -0.5885 -0.0151
vn 0.8153 -0.5700 0.1024
vn 0.7289 -0.6386 -0.2470
vn 0.1125 -0.6950 -0.7102
vn 0.1962 -0.8413 -0.5037
vn 0.0464 -0.8107 -0.5836
vn 0.4685 -0.7671 0.4382
vn 0.2435 -0.7362 0.6314
vn 0.1371 -0.9010 0.4116
vn 0.7210 -0.6874 0.0873
vn 0.8190 -0.5676 0.0840
vn 0.8069 -0.4948 -0.3227
vn 0.8406 -0.4675 -0.2736
vn 0.8420 -0.4566 -0.2872
vn 0.8149 -0.5009 -0.2917
vn 0.8750 -0.4133 -0.2520
vn 0.8826 -0.4008 -0.2456
vn 0.8494 -0.5096 -0.1374
vn 0.8802 -0.4543 -0.1376
vn 0.8022 -0.5286 -0.2775
vn 0.8424 -0.5253 0.1203
vn 0.8237 -0.5122 -0.2433
vn 0.8939 -0.4056 -0.1910
vn 0.8620 -0.4985 0.0915
vn 0.8507 -0.5253 0.0191
vn 0.8686 -0.4954 0.0090
vn 0.8086 -0.5450 -0.2217
vn 0.4769 -0.8445 -0.2436
vn 0.9427 -0.2733 -0.1911
vn 0.9679 -0.1930 -0.1612
vn 0.9567 -0.2047 -0.2068
vn 0.9352 -0.2778 -0.2196
vn 0.9430 -0.3211 -0.0874
vn 0.9404 -0.3379 0.0378
vn 0.9747 -0.2170 -0.0545
vn 0.9712 -0.2330 0.0501
vn 0.9114 -0.3496 -0.2169
vn 0.9106 -0.3463 -0.2254
vn 0.9132 -0.3916 -0.1129
vn 0.9023 -0.4305 0.0236
vn 0.8956 -0.4325 0.1042
vn 0.9375 -0.3269 0.1190
vn 0.9894 0.0206 -0.1437
vn 0.9766 -0.0992 -0.1906
vn 0.9848 -0.1047 -0.1388
vn 0.9950 -0.0047 -0.0995
vn 0.7624 0.6220 0.1784
vn 0.9945 0.1044 0.0116
vn 0.9925 -0.1175 -0.0340
vn 0.9999 -0.0110 -0.0066
vn 0.9871 -0.1426 0.0733
vn 0.9948 -0.0445 0.0920
vn 0.9803 -0.1321 0.1465
vn 0.9771 0.2114 0.0255
vn 0.9834 -0.0472 0.1751
vn 0.9828 0.0450 0.1791
vn 0.9903 0.0455 0.1310
vn 0.9969 0.0769 0.0174
vn 0.9873 0.0999 0.1239
vn 0.9909 0.1317 -0.0293
vn 0.9943 0.0823 -0.0673
vn 0.7316 0.6020 0.3199
vn 0.9852 0.1636 -0.0519
vn 0.9882 0.1170 -0.0988
vn 0.9683 -0.2270 0.1041
vn 0.1628 -0.5592 -0.8129
vn -0.0301 -0.4854 -0.8738
vn 0.4293 -0.4428 0.7872
vn 0.0775 -0.3909 0.9172
vn 0.0718 -0.4473 0.8915
vn 0.7748 -0.4212 0.4715
vn 0.9732 -0.1423 0.1804
vn 0.8050 -0.2003 0.5584
vn 0.9407 -0.3222 0.1061
vn 0.5269 -0.8055 -0.2712
vn 0.5164 -0.7980 -0.3108
vn 0.8074 -0.5863 -0.0659
vn 0.8195 -0.5605 -0.1196
vn 0.8265 -0.5459 -0.1373
vn 0.1749 0.9390 -0.2960
vn 0.2097 0.9735 0.0912
vn 0.2182 0.9213 0.3218
vn 0.2105 0.3089 0.9275
vn 0.1379 0.8074 -0.5737
vn 0.1049 0.6409 -0.7604
vn 0.0853 0.4847 -0.8705
vn 0.0811 0.4305 -0.8989
vn -0.0482 -0.6568 -0.7525
vn -0.0594 -0.8026 -0.5936
vn -0.0555 -0.9134 -0.4033
vn -0.0109 -0.9104 0.4136
vn 0.0703 -0.4756 0.8769
vn 0.0534 -0.5676 0.8216
vn 0.0269 -0.7115 0.7021
vn 0.7500 0.4969 0.4365
vn 0.8844 0.2946 0.3620
vn 0.9176 0.0970 0.3855
vn 0.8990 -0.4285 0.0903
vn 0.8547 -0.5073 0.1106
vn 0.8198 -0.5726 -0.0094
vn 0.5381 -0.5685 -0.6223
vt 0.011000 0.885600
vt 0.012500 0.886000
vt 0.012700 0.904600
vt 0.011200 0.904700
vt 0.011400 0.872000
vt 0.012900 0.872200
vt 0.078800 0.969000
vt 0.092600 0.957200
vt 0.093300 0.957900
vt 0.077900 0.967900
vt 0.103400 0.938400
vt 0.104600 0.938700
vt 0.100300 0.949200
vt 0.099200 0.948700
vt 0.094100 0.958600
vt 0.066400 0.974700
vt 0.066000 0.973400
vt 0.079600 0.970100
vt 0.052500 0.974700
vt 0.052600 0.973300
vt 0.037100 0.967300
vt 0.036400 0.968400
vt 0.026600 0.958400
vt 0.025600 0.959200
vt 0.018700 0.948300
vt 0.017700 0.948800
vt 0.991800 0.147300
vt 0.951200 0.147300
vt 0.951200 0.138600
vt 0.991800 0.138600
vt 0.991800 0.175700
vt 0.991800 0.188500
vt 0.951200 0.175700
vt 0.951200 0.188500
vt 0.105200 0.924800
vt 0.102200 0.938200
vt 0.103900 0.924800
vt 0.991800 0.318000
vt 0.951200 0.318000
vt 0.951200 0.302200
vt 0.991800 0.302200
vt 0.105600 0.889200
vt 0.105200 0.907800
vt 0.103700 0.907600
vt 0.103900 0.889300
vt 0.106800 0.908000
vt 0.106600 0.924900
vt 0.991800 0.331000
vt 0.991800 0.341700
vt 0.951200 0.331000
vt 0.951200 0.341700
vt 0.106300 0.871400
vt 0.104700 0.871500
vt 0.102400 0.854300
vt 0.101000 0.854600
vt 0.033100 0.827700
vt 0.033700 0.829100
vt 0.018900 0.845500
vt 0.020000 0.846600
vt 0.044100 0.819500
vt 0.056200 0.817900
vt 0.056700 0.819600
vt 0.044900 0.820900
vt 0.951200 0.037100
vt 0.991800 0.020600
vt 0.991800 0.037100
vt 0.951200 0.020600
vt 0.087300 0.834600
vt 0.086000 0.835500
vt 0.076000 0.825900
vt 0.075200 0.827300
vt 0.080800 0.839500
vt 0.072400 0.832000
vt 0.087600 0.847800
vt 0.094200 0.845400
vt 0.076800 0.824600
vt 0.066500 0.821000
vt 0.067100 0.819500
vt 0.014900 0.857800
vt 0.013500 0.857300
vt 0.017700 0.844400
vt 0.016200 0.858200
vt 0.014400 0.872400
vt 0.029200 0.847100
vt 0.040400 0.857800
vt 0.026100 0.859300
vt 0.038900 0.845900
vt 0.041600 0.870800
vt 0.025700 0.872500
vt 0.058400 0.855300
vt 0.059100 0.870700
vt 0.036600 0.836000
vt 0.092100 0.856200
vt 0.099600 0.855000
vt 0.103200 0.871700
vt 0.093100 0.871200
vt 0.076200 0.855200
vt 0.076400 0.869600
vt 0.046700 0.830600
vt 0.045700 0.822400
vt 0.043500 0.903900
vt 0.044600 0.921400
vt 0.028000 0.921900
vt 0.027100 0.904300
vt 0.060400 0.903700
vt 0.077400 0.905600
vt 0.060900 0.922000
vt 0.076900 0.923000
vt 0.042800 0.886200
vt 0.026200 0.887300
vt 0.059800 0.885900
vt 0.076900 0.886400
vt 0.093500 0.888000
vt 0.093200 0.906800
vt 0.032800 0.946800
vt 0.030000 0.936600
vt 0.046700 0.937000
vt 0.048800 0.946100
vt 0.065500 0.972100
vt 0.063900 0.964300
vt 0.061400 0.936900
vt 0.061300 0.945100
vt 0.076400 0.936200
vt 0.075900 0.945600
vt 0.092500 0.937300
vt 0.098100 0.948200
vt 0.090400 0.946500
vt 0.083600 0.956500
vt 0.075100 0.955000
vt 0.062300 0.955400
vt 0.074100 0.962800
vt 0.052600 0.964200
vt 0.051200 0.955700
vt 0.052700 0.971900
vt 0.040300 0.962000
vt 0.037000 0.956000
vt 0.092100 0.924100
vt 0.991800 0.353400
vt 0.951200 0.353400
vt 0.991800 0.112100
vt 0.991800 0.127300
vt 0.951200 0.127300
vt 0.951200 0.112100
vt 0.012500 0.925200
vt 0.016000 0.939000
vt 0.014800 0.939200
vt 0.013800 0.925000
vt 0.057200 0.821200
vt 0.065800 0.822400
vt 0.064400 0.829000
vt 0.056400 0.827100
vt 0.056800 0.842600
vt 0.951200 0.235300
vt 0.991800 0.216500
vt 0.991800 0.235300
vt 0.951200 0.216500
vt 0.991800 0.199600
vt 0.951200 0.199600
vt 0.951200 0.158400
vt 0.991800 0.158400
vt 0.951200 0.245200
vt 0.991800 0.245200
vt 0.951200 0.256600
vt 0.991800 0.256600
vt 0.991800 0.269800
vt 0.951200 0.269800
vt 0.991800 0.285700
vt 0.951200 0.285700
vt 0.951200 0.365400
vt 0.991800 0.365400
vt 0.951200 0.376200
vt 0.991800 0.376200
vt 0.951200 0.385500
vt 0.991800 0.385500
vt 0.951200 0.053800
vt 0.991800 0.053800
vt 0.951200 0.009900
vt 0.991800 0.009900
vt 0.991800 0.079800
vt 0.991800 0.093900
vt 0.951200 0.093900
vt 0.951200 0.079800
vt 0.991800 0.066400
vt 0.951200 0.066400
vt 0.037700 0.966300
vt 0.027600 0.957500
vt 0.019600 0.947800
vt 0.014200 0.904400
vt 0.013900 0.886400
vt 0.074200 0.844300
vt 0.095600 0.844600
vt 0.032500 0.826300
vt 0.107200 0.889200
vt 0.088500 0.833600
vt 0.013600 0.939500
vt 0.011200 0.925500
vt 0.096900 0.843900
s 1
usemtl Material__79.003
f 1/1/1 2/2/2 3/3/3
f 3/3/3 4/4/4 1/1/1
f 2/2/2 1/1/1 5/5/5
f 5/5/5 6/6/6 2/2/2
f 7/7/7 8/8/8 9/9/9
f 7/7/7 10/10/10 8/8/8
f 11/11/11 12/12/12 13/13/13
f 13/13/13 14/14/14 11/11/11
f 14/14/14 13/13/13 15/15/15
f 15/15/15 9/9/9 14/14/14
f 7/7/7 16/16/16 17/17/17
f 16/16/16 7/7/7 18/18/18
f 17/17/17 19/19/19 20/20/20
f 19/19/19 17/17/17 16/16/16
f 21/21/21 22/22/22 23/23/23
f 22/22/22 24/24/24 23/23/23
f 23/23/23 24/24/24 25/25/25
f 24/24/24 26/26/26 25/25/25
f 26/27/26 27/28/27 28/29/28
f 28/29/28 29/30/29 26/27/26
f 22/31/22 19/32/19 30/33/30
f 31/34/31 30/33/30 19/32/19
f 32/35/32 11/11/11 33/36/33
f 33/36/33 34/37/34 32/35/32
f 35/38/35 36/39/36 37/40/37
f 37/40/37 38/41/38 35/38/35
f 39/42/39 40/43/40 41/44/41
f 41/44/41 42/45/42 39/42/39
f 40/43/40 43/46/43 32/35/32
f 43/46/43 44/47/44 32/35/32
f 45/48/45 46/49/46 47/50/47
f 46/49/46 48/51/48 47/50/47
f 35/52/35 49/53/49 45/54/45
f 50/55/50 45/54/45 49/53/49
f 51/56/51 52/57/52 53/58/53
f 54/59/54 53/58/53 52/57/52
f 55/60/55 56/61/56 57/62/57
f 57/62/57 58/63/58 55/60/55
f 59/64/59 55/65/55 60/66/60
f 59/64/59 61/67/61 55/65/55
f 62/68/62 63/69/63 64/70/64
f 65/71/65 64/70/64 63/69/63
f 63/69/63 66/72/66 65/71/65
f 66/72/66 67/73/67 65/71/65
f 68/74/68 66/72/66 63/69/63
f 63/69/63 69/75/69 68/74/68
f 70/76/70 64/70/64 71/77/71
f 71/77/71 72/78/72 70/76/70
f 57/62/57 72/78/72 71/77/71
f 72/78/72 57/62/57 56/61/56
f 53/58/53 73/79/73 74/80/74
f 74/80/74 75/81/75 53/58/53
f 73/79/73 76/82/76 77/83/77
f 77/83/77 6/6/6 73/79/73
f 78/84/78 79/85/79 80/86/80
f 78/84/78 81/87/81 79/85/79
f 80/86/80 79/85/79 82/88/82
f 82/88/82 83/89/83 80/86/80
f 79/85/79 84/90/84 85/91/85
f 85/91/85 82/88/82 79/85/79
f 52/57/52 86/92/86 54/59/54
f 87/93/87 88/94/88 89/95/89
f 89/95/89 90/96/90 87/93/87
f 91/97/91 92/98/92 84/90/84
f 84/90/84 92/98/92 85/91/85
f 86/92/86 52/57/52 93/99/93
f 94/100/94 93/99/93 52/57/52
f 95/101/95 96/102/96 97/103/97
f 97/103/97 98/104/98 95/101/95
f 99/105/99 100/106/100 101/107/101
f 100/106/100 102/108/102 101/107/101
f 103/109/103 98/104/98 104/110/104
f 103/109/103 95/101/95 98/104/98
f 82/88/82 103/109/103 83/89/83
f 83/89/83 103/109/103 104/110/104
f 85/91/85 103/109/103 82/88/82
f 85/91/85 105/111/105 103/109/103
f 105/111/105 95/101/95 103/109/103
f 105/111/105 99/105/99 95/101/95
f 85/91/85 92/98/92 106/112/106
f 106/112/106 105/111/105 85/91/85
f 90/96/90 89/95/89 42/45/42
f 42/45/42 107/113/107 90/96/90
f 107/113/107 42/45/42 41/44/41
f 41/44/41 108/114/108 107/113/107
f 96/102/96 95/101/95 99/105/99
f 99/105/99 101/107/101 96/102/96
f 99/105/99 105/111/105 106/112/106
f 106/112/106 100/106/100 99/105/99
f 109/115/109 110/116/110 111/117/111
f 111/117/111 112/118/112 109/115/109
f 113/119/113 114/120/114 10/10/10
f 112/118/112 111/117/111 115/121/115
f 115/121/115 116/122/116 112/118/112
f 115/121/115 117/123/117 118/124/118
f 118/124/118 116/122/116 115/121/115
f 119/125/119 33/36/33 120/126/120
f 120/126/120 121/127/121 119/125/119
f 121/127/121 122/128/122 118/124/118
f 118/124/118 122/128/122 123/129/123
f 124/130/124 123/129/123 125/131/125
f 125/131/125 114/120/114 124/130/124
f 124/130/124 126/132/126 127/133/127
f 126/132/126 124/130/124 114/120/114
f 128/134/128 126/132/126 113/119/113
f 126/132/126 128/134/128 129/135/129
f 129/135/129 130/136/130 127/133/127
f 127/133/127 126/132/126 129/135/129
f 108/114/108 41/44/41 34/37/34
f 34/37/34 131/137/131 108/114/108
f 46/49/46 132/138/132 48/51/48
f 132/138/132 133/139/133 48/51/48
f 4/140/4 134/141/134 135/142/135
f 135/142/135 136/143/136 4/140/4
f 137/144/137 138/145/138 139/146/139
f 137/144/137 140/147/140 138/145/138
f 141/148/141 142/149/142 143/150/143
f 143/150/143 144/151/144 141/148/141
f 120/126/120 8/8/8 121/127/121
f 8/8/8 122/128/122 121/127/121
f 10/10/10 125/131/125 122/128/122
f 122/128/122 8/8/8 10/10/10
f 145/152/145 93/99/93 144/151/144
f 145/152/145 144/151/144 143/150/143
f 146/153/146 18/154/18 15/155/15
f 18/154/18 146/153/146 147/156/147
f 16/157/16 148/158/148 31/34/31
f 31/34/31 19/32/19 16/157/16
f 22/31/22 30/33/30 149/159/149
f 149/159/149 24/160/24 22/31/22
f 24/160/24 149/159/149 27/28/27
f 27/28/27 26/27/26 24/160/24
f 16/157/16 18/154/18 147/156/147
f 147/156/147 148/158/148 16/157/16
f 150/161/150 15/155/15 13/162/13
f 150/161/150 146/153/146 15/155/15
f 151/163/151 13/162/13 12/164/12
f 151/163/151 150/161/150 13/162/13
f 44/165/44 152/166/152 151/163/151
f 151/163/151 12/164/12 44/165/44
f 43/167/43 153/168/153 152/166/152
f 152/166/152 44/165/44 43/167/43
f 38/41/38 37/40/37 153/168/153
f 153/168/153 43/167/43 38/41/38
f 154/169/154 133/139/133 70/170/70
f 132/138/132 70/170/70 133/139/133
f 155/171/155 154/169/154 72/172/72
f 70/170/70 72/172/72 154/169/154
f 156/173/156 155/171/155 56/174/56
f 72/172/72 56/174/56 155/171/155
f 157/175/157 60/66/60 75/176/75
f 157/175/157 59/64/59 60/66/60
f 61/67/61 156/177/156 55/65/55
f 56/178/56 55/65/55 156/177/156
f 5/179/5 1/180/1 158/181/158
f 158/181/158 159/182/159 5/179/5
f 1/180/1 4/140/4 136/143/136
f 136/143/136 158/181/158 1/180/1
f 159/182/159 74/183/74 5/179/5
f 74/183/74 159/182/159 160/184/160
f 160/184/160 75/176/75 74/183/74
f 160/184/160 157/175/157 75/176/75
f 47/50/47 36/39/36 45/48/45
f 35/38/35 45/48/45 36/39/36
f 28/29/28 135/142/135 134/141/134
f 134/141/134 29/30/29 28/29/28
f 117/123/117 119/125/119 121/127/121
f 121/127/121 118/124/118 117/123/117
f 100/106/100 108/114/108 131/137/131
f 131/137/131 102/108/102 100/106/100
f 106/112/106 107/113/107 108/114/108
f 108/114/108 100/106/100 106/112/106
f 92/98/92 90/96/90 107/113/107
f 107/113/107 106/112/106 92/98/92
f 91/97/91 87/93/87 90/96/90
f 90/96/90 92/98/92 91/97/91
f 161/185/161 162/186/162 129/135/129
f 163/187/163 138/145/138 110/116/110
f 110/116/110 109/115/109 163/187/163
f 164/188/164 98/104/98 97/103/97
f 97/103/97 140/147/140 164/188/164
f 104/110/104 164/188/164 165/189/165
f 104/110/104 98/104/98 164/188/164
f 77/83/77 83/89/83 104/110/104
f 104/110/104 165/189/165 77/83/77
f 76/82/76 80/86/80 83/89/83
f 83/89/83 77/83/77 76/82/76
f 81/87/81 86/92/86 93/99/93
f 93/99/93 145/152/145 81/87/81
f 54/59/54 78/84/78 80/86/80
f 80/86/80 76/82/76 54/59/54
f 140/147/140 97/103/97 110/116/110
f 110/116/110 138/145/138 140/147/140
f 96/102/96 110/116/110 97/103/97
f 110/116/110 96/102/96 111/117/111
f 101/107/101 111/117/111 96/102/96
f 101/107/101 115/121/115 111/117/111
f 102/108/102 117/123/117 101/107/101
f 101/107/101 117/123/117 115/121/115
f 131/137/131 117/123/117 102/108/102
f 131/137/131 119/125/119 117/123/117
f 34/37/34 33/36/33 119/125/119
f 119/125/119 131/137/131 34/37/34
f 163/187/163 109/115/109 162/186/162
f 162/186/162 109/115/109 130/136/130
f 112/118/112 130/136/130 109/115/109
f 130/136/130 112/118/112 127/133/127
f 116/122/116 127/133/127 112/118/112
f 127/133/127 116/122/116 124/130/124
f 118/124/118 123/129/123 124/130/124
f 124/130/124 116/122/116 118/124/118
f 125/131/125 123/129/123 122/128/122
f 68/74/68 91/97/91 166/190/166
f 91/97/91 68/74/68 87/93/87
f 68/74/68 69/75/69 87/93/87
f 87/93/87 69/75/69 88/94/88
f 81/87/81 145/152/145 84/90/84
f 84/90/84 79/85/79 81/87/81
f 78/84/78 86/92/86 81/87/81
f 65/71/65 67/73/67 142/149/142
f 67/73/67 143/150/143 142/149/142
f 67/73/67 66/72/66 166/190/166
f 93/99/93 94/100/94 144/151/144
f 141/148/141 144/151/144 94/100/94
f 166/190/166 84/90/84 145/152/145
f 84/90/84 166/190/166 91/97/91
f 143/150/143 67/73/67 166/190/166
f 166/190/166 145/152/145 143/150/143
f 166/190/166 66/72/66 68/74/68
f 163/187/163 25/25/25 138/145/138
f 139/146/139 138/145/138 25/25/25
f 21/21/21 128/134/128 20/20/20
f 128/134/128 21/21/21 161/185/161
f 49/53/49 39/42/39 42/45/42
f 42/45/42 89/95/89 49/53/49
f 88/94/88 69/75/69 167/191/167
f 167/191/167 50/55/50 88/94/88
f 51/56/51 60/192/60 58/63/58
f 60/192/60 55/60/55 58/63/58
f 63/69/63 62/68/62 69/75/69
f 62/68/62 167/191/167 69/75/69
f 3/3/3 140/147/140 137/144/137
f 3/3/3 164/188/164 140/147/140
f 2/2/2 165/189/165 164/188/164
f 164/188/164 3/3/3 2/2/2
f 6/6/6 77/83/77 165/189/165
f 165/189/165 2/2/2 6/6/6
f 18/18/18 9/9/9 15/15/15
f 18/18/18 7/7/7 9/9/9
f 33/36/33 11/11/11 14/14/14
f 14/14/14 120/126/120 33/36/33
f 9/9/9 8/8/8 120/126/120
f 120/126/120 14/14/14 9/9/9
f 10/10/10 17/17/17 113/119/113
f 17/17/17 10/10/10 7/7/7
f 113/119/113 20/20/20 128/134/128
f 20/20/20 113/119/113 17/17/17
f 161/185/161 21/21/21 162/186/162
f 21/21/21 23/23/23 162/186/162
f 162/186/162 23/23/23 163/187/163
f 23/23/23 25/25/25 163/187/163
f 32/35/32 44/47/44 12/12/12
f 12/12/12 11/11/11 32/35/32
f 40/43/40 39/42/39 38/193/38
f 38/193/38 43/46/43 40/43/40
f 32/35/32 34/37/34 40/43/40
f 41/44/41 40/43/40 34/37/34
f 49/53/49 89/95/89 50/55/50
f 88/94/88 50/55/50 89/95/89
f 53/58/53 75/81/75 51/56/51
f 75/81/75 60/192/60 51/56/51
f 58/63/58 57/62/57 141/148/141
f 141/148/141 94/100/94 58/63/58
f 62/68/62 64/70/64 70/76/70
f 70/76/70 132/194/132 62/68/62
f 64/70/64 65/71/65 142/149/142
f 142/149/142 71/77/71 64/70/64
f 141/148/141 71/77/71 142/149/142
f 71/77/71 141/148/141 57/62/57
f 53/58/53 54/59/54 73/79/73
f 76/82/76 73/79/73 54/59/54
f 6/6/6 5/5/5 74/80/74
f 74/80/74 73/79/73 6/6/6
f 139/146/139 29/195/29 134/196/134
f 134/196/134 137/144/137 139/146/139
f 25/25/25 26/26/26 139/146/139
f 29/195/29 139/146/139 26/26/26
f 22/22/22 20/20/20 19/19/19
f 20/20/20 22/22/22 21/21/21
f 39/42/39 49/53/49 35/52/35
f 35/52/35 38/193/38 39/42/39
f 50/55/50 167/191/167 46/197/46
f 46/197/46 45/54/45 50/55/50
f 58/63/58 94/100/94 51/56/51
f 52/57/52 51/56/51 94/100/94
f 62/68/62 132/194/132 167/191/167
f 132/194/132 46/197/46 167/191/167
f 4/4/4 137/144/137 134/196/134
f 4/4/4 3/3/3 137/144/137
f 129/135/129 162/186/162 130/136/130
f 10/10/10 114/120/114 125/131/125
f 113/119/113 126/132/126 114/120/114
f 129/135/129 128/134/128 161/185/161
f 54/59/54 86/92/86 78/84/78
