# Blender 4.0.1
# www.blender.org
mtllib right_b_button.mtl
o right_b_button
v -0.000244 0.002426 0.044762
v -0.000379 0.000684 0.045596
v -0.001249 0.001932 0.043922
v -0.001417 0.000277 0.044827
v 0.000403 0.001232 0.046724
v 0.000477 0.003000 0.045832
v 0.000849 0.001840 0.047932
v 0.000864 0.003607 0.047043
v 0.000882 0.004205 0.048317
v 0.000869 0.002448 0.049224
v 0.000541 0.004754 0.049563
v 0.000558 0.002998 0.050421
v -0.000140 0.005216 0.050698
v -0.000078 0.003483 0.051501
v -0.001116 0.005568 0.051658
v -0.001038 0.003907 0.052541
v -0.002324 0.005777 0.052362
v -0.002286 0.004201 0.053268
v -0.003674 0.005831 0.052768
v -0.003635 0.004367 0.053682
v -0.005068 0.005723 0.052841
v -0.004974 0.004321 0.053730
v -0.006387 0.004121 0.053403
v -0.006430 0.005462 0.052580
v -0.007640 0.003834 0.052892
v -0.007660 0.005076 0.052015
v -0.009795 0.002796 0.047610
v -0.009921 0.001623 0.048418
v -0.009767 0.003396 0.048886
v -0.009816 0.002235 0.049715
v -0.008768 0.001777 0.045216
v -0.008947 0.000520 0.046003
v -0.009452 0.002247 0.046365
v -0.009610 0.001073 0.047222
v -0.006588 0.001223 0.043563
v -0.006812 -0.000158 0.044382
v -0.007792 0.001430 0.044262
v -0.008001 0.000110 0.045055
v -0.006546 0.001401 0.043574
v -0.004502 0.003881 0.047714
v -0.005224 0.001351 0.043180
v -0.003849 0.001455 0.043107
v -0.002514 0.001709 0.043359
v -0.001313 0.002093 0.043921
v -0.000326 0.002583 0.044754
v 0.000380 0.003144 0.045799
v 0.000757 0.003739 0.046987
v 0.000778 0.004326 0.048237
v 0.000443 0.004866 0.049463
v -0.000226 0.005322 0.050582
v -0.001183 0.005662 0.051516
v -0.002363 0.005865 0.052204
v -0.003685 0.005915 0.052599
v -0.005060 0.005810 0.052672
v -0.006394 0.005556 0.052419
v -0.007595 0.005171 0.051857
v -0.008582 0.004682 0.051026
v -0.009289 0.004121 0.049980
v -0.009665 0.003526 0.048791
v -0.009686 0.002940 0.047542
v -0.009351 0.002400 0.046316
v -0.008682 0.001943 0.045198
v -0.007725 0.001603 0.044262
v -0.005239 0.001172 0.043161
v -0.005470 -0.000289 0.043977
v -0.003830 0.001279 0.043087
v -0.003992 -0.000246 0.043918
v -0.002469 0.001537 0.043345
v -0.002593 -0.000074 0.044189
v -0.008668 0.004578 0.051169
v -0.008673 0.003387 0.052046
v -0.009380 0.004001 0.050097
v -0.009370 0.002819 0.050937
vn 0.7466 -0.0174 -0.6650
vn 0.7596 -0.3421 -0.5531
vn 0.5663 -0.1262 -0.8145
vn 0.5767 -0.4293 -0.6951
vn 0.9063 -0.2243 -0.3582
vn 0.8768 0.0859 -0.4731
vn 0.9876 -0.0845 -0.1327
vn 0.9428 0.2137 -0.2558
vn 0.9449 0.3261 -0.0276
vn 0.9934 0.0496 0.1038
vn 0.8797 0.4359 0.1902
vn 0.9331 0.1682 0.3180
vn 0.7551 0.5277 0.3889
vn 0.8171 0.2773 0.5055
vn 0.5744 0.6215 0.5328
vn 0.6437 0.3872 0.6601
vn 0.3505 0.6876 0.6359
vn 0.4102 0.4705 0.7812
vn 0.1087 0.7300 0.6747
vn 0.1576 0.5277 0.8347
vn -0.1424 0.7238 0.6752
vn -0.1231 0.5255 0.8418
vn -0.3406 0.4854 0.8052
vn -0.3647 0.6870 0.6285
vn -0.5649 0.4548 0.6885
vn -0.5700 0.6556 0.4952
vn -0.9413 0.2432 -0.2340
vn -0.9952 0.0226 -0.0957
vn -0.9376 0.3476 -0.0095
vn -0.9790 0.1359 0.1521
vn -0.7775 0.0239 -0.6285
vn -0.8275 -0.2197 -0.5167
vn -0.8921 0.1228 -0.4347
vn -0.9444 -0.1055 -0.3114
vn -0.4014 -0.1475 -0.9040
vn -0.4239 -0.4119 -0.8066
vn -0.6084 -0.0687 -0.7906
vn -0.6432 -0.3235 -0.6940
vn -0.2819 0.5445 -0.7899
vn -0.0917 0.9016 -0.4227
vn -0.1504 0.5334 -0.8324
vn -0.0132 0.5345 -0.8451
vn 0.1244 0.5569 -0.8212
vn 0.2573 0.5853 -0.7689
vn 0.3512 0.6456 -0.6781
vn 0.4257 0.7018 -0.5712
vn 0.4575 0.7677 -0.4487
vn 0.4598 0.8278 -0.3215
vn 0.4219 0.8848 -0.1976
vn 0.3536 0.9316 -0.0840
vn 0.2466 0.9691 -0.0055
vn 0.1267 0.9907 0.0487
vn -0.0042 0.9978 0.0668
vn -0.1342 0.9885 0.0701
vn -0.2582 0.9648 0.0503
vn -0.3547 0.9346 -0.0247
vn -0.4417 0.8911 -0.1039
vn -0.5232 0.8332 -0.1789
vn -0.5553 0.7798 -0.2892
vn -0.5538 0.7274 -0.4051
vn -0.5344 0.6675 -0.5184
vn -0.4765 0.6210 -0.6224
vn -0.3899 0.5802 -0.7151
vn -0.1577 -0.1860 -0.9698
vn -0.1709 -0.4665 -0.8679
vn 0.0940 -0.1958 -0.9761
vn 0.0956 -0.4865 -0.8684
vn 0.3501 -0.1686 -0.9214
vn 0.3781 -0.4580 -0.8045
vn -0.7478 0.5681 0.3436
vn -0.7796 0.3677 0.5070
vn -0.8743 0.4446 0.1946
vn -0.9079 0.2413 0.3426
vt 0.918500 0.356400
vt 0.931800 0.356400
vt 0.918500 0.367100
vt 0.931800 0.367100
vt 0.931800 0.345100
vt 0.918500 0.345100
vt 0.931800 0.334100
vt 0.918500 0.334100
vt 0.918500 0.323000
vt 0.931800 0.323000
vt 0.918500 0.312300
vt 0.931800 0.312300
vt 0.918500 0.301500
vt 0.931800 0.301500
vt 0.918500 0.290300
vt 0.931800 0.290300
vt 0.918500 0.279000
vt 0.931800 0.279000
vt 0.918500 0.268000
vt 0.931800 0.268000
vt 0.918500 0.257300
vt 0.931800 0.257300
vt 0.931800 0.246100
vt 0.918500 0.246100
vt 0.931800 0.235200
vt 0.918500 0.235200
vt 0.918500 0.191000
vt 0.931800 0.191000
vt 0.918500 0.202100
vt 0.931800 0.202100
vt 0.918500 0.168900
vt 0.931800 0.168900
vt 0.918500 0.180200
vt 0.931800 0.180200
vt 0.918500 0.411400
vt 0.931800 0.411400
vt 0.918500 0.422300
vt 0.931800 0.422300
vt 0.657200 0.320400
vt 0.742400 0.320800
vt 0.660000 0.342700
vt 0.668400 0.363500
vt 0.682000 0.381400
vt 0.699700 0.395100
vt 0.720400 0.403900
vt 0.742600 0.407000
vt 0.764900 0.404200
vt 0.785700 0.395800
vt 0.803600 0.382300
vt 0.817500 0.364600
vt 0.826200 0.343900
vt 0.829400 0.321600
vt 0.826700 0.299300
vt 0.818200 0.278400
vt 0.804700 0.260500
vt 0.786900 0.246600
vt 0.766200 0.237800
vt 0.743900 0.234700
vt 0.721500 0.237500
vt 0.700700 0.246000
vt 0.682700 0.259600
vt 0.668900 0.277400
vt 0.660200 0.298100
vt 0.918500 0.400400
vt 0.931800 0.400400
vt 0.918500 0.389100
vt 0.931800 0.389100
vt 0.918500 0.378000
vt 0.931800 0.378000
vt 0.918500 0.224200
vt 0.931800 0.224200
vt 0.918500 0.213100
vt 0.931800 0.213100
vt 0.918500 0.433300
vt 0.931800 0.433300
vt 0.719500 0.406700
vt 0.698300 0.397600
vt 0.742700 0.409900
vt 0.765800 0.407000
vt 0.787300 0.398200
vt 0.805800 0.384200
vt 0.820000 0.366000
vt 0.829200 0.344500
vt 0.832400 0.321400
vt 0.829600 0.298200
vt 0.820900 0.276800
vt 0.806800 0.258200
vt 0.788500 0.243800
vt 0.699300 0.243200
vt 0.721000 0.234500
vt 0.680900 0.257200
vt 0.666400 0.275600
vt 0.654200 0.320100
vt 0.657400 0.297000
vt 0.657100 0.343100
vt 0.665900 0.364800
vt 0.679900 0.383400
vt 0.767100 0.234800
vt 0.744000 0.231600
s 1
usemtl o_com_sparrow_right_01_Material__79.002
f 1/1/1 2/2/2 3/3/3
f 3/3/3 2/2/2 4/4/4
f 1/1/1 5/5/5 2/2/2
f 5/5/5 1/1/1 6/6/6
f 6/6/6 7/7/7 5/5/5
f 7/7/7 6/6/6 8/8/8
f 9/9/9 7/7/7 8/8/8
f 7/7/7 9/9/9 10/10/10
f 9/9/9 11/11/11 10/10/10
f 11/11/11 12/12/12 10/10/10
f 13/13/13 12/12/12 11/11/11
f 12/12/12 13/13/13 14/14/14
f 13/13/13 15/15/15 14/14/14
f 15/15/15 16/16/16 14/14/14
f 15/15/15 17/17/17 16/16/16
f 17/17/17 18/18/18 16/16/16
f 19/19/19 18/18/18 17/17/17
f 18/18/18 19/19/19 20/20/20
f 19/19/19 21/21/21 20/20/20
f 21/21/21 22/22/22 20/20/20
f 21/21/21 23/23/23 22/22/22
f 23/23/23 21/21/21 24/24/24
f 24/24/24 25/25/25 23/23/23
f 25/25/25 24/24/24 26/26/26
f 27/27/27 28/28/28 29/29/29
f 29/29/29 28/28/28 30/30/30
f 31/31/31 32/32/32 33/33/33
f 33/33/33 32/32/32 34/34/34
f 35/35/35 36/36/36 37/37/37
f 37/37/37 36/36/36 38/38/38
f 39/39/39 40/40/40 41/41/41
f 41/41/41 40/40/40 42/42/42
f 42/42/42 40/40/40 43/43/43
f 43/43/43 40/40/40 44/44/44
f 44/44/44 40/40/40 45/45/45
f 45/45/45 40/40/40 46/46/46
f 46/46/46 40/40/40 47/47/47
f 47/47/47 40/40/40 48/48/48
f 49/49/49 48/48/48 40/40/40
f 40/40/40 50/50/50 49/49/49
f 50/50/50 40/40/40 51/51/51
f 52/52/52 51/51/51 40/40/40
f 52/52/52 40/40/40 53/53/53
f 53/53/53 40/40/40 54/54/54
f 54/54/54 40/40/40 55/55/55
f 56/56/56 55/55/55 40/40/40
f 56/56/56 40/40/40 57/57/57
f 57/57/57 40/40/40 58/58/58
f 58/58/58 40/40/40 59/59/59
f 60/60/60 59/59/59 40/40/40
f 40/40/40 61/61/61 60/60/60
f 61/61/61 40/40/40 62/62/62
f 62/62/62 40/40/40 63/63/63
f 63/63/63 40/40/40 39/39/39
f 35/35/35 64/64/64 65/65/65
f 35/35/35 65/65/65 36/36/36
f 64/64/64 66/66/66 67/67/67
f 64/64/64 67/67/67 65/65/65
f 66/66/66 68/68/68 69/69/69
f 66/66/66 69/69/69 67/67/67
f 68/68/68 3/3/3 4/4/4
f 68/68/68 4/4/4 69/69/69
f 26/26/26 70/70/70 71/71/71
f 26/26/26 71/71/71 25/25/25
f 70/70/70 72/72/72 73/73/73
f 70/70/70 73/73/73 71/71/71
f 72/72/72 29/29/29 30/30/30
f 72/72/72 30/30/30 73/73/73
f 27/27/27 33/33/33 34/34/34
f 27/27/27 34/34/34 28/28/28
f 31/74/31 37/37/37 38/38/38
f 31/74/31 38/38/38 32/75/32
f 1/76/1 3/77/3 45/45/45
f 45/45/45 3/77/3 44/44/44
f 46/46/46 1/76/1 45/45/45
f 6/78/6 1/76/1 46/46/46
f 8/79/8 46/46/46 47/47/47
f 46/46/46 8/79/8 6/78/6
f 47/47/47 9/80/9 8/79/8
f 9/80/9 47/47/47 48/48/48
f 49/49/49 9/80/9 48/48/48
f 11/81/11 9/80/9 49/49/49
f 50/50/50 11/81/11 49/49/49
f 13/82/13 11/81/11 50/50/50
f 15/83/15 50/50/50 51/51/51
f 50/50/50 15/83/15 13/82/13
f 17/84/17 51/51/51 52/52/52
f 51/51/51 17/84/17 15/83/15
f 19/85/19 52/52/52 53/53/53
f 52/52/52 19/85/19 17/84/17
f 54/54/54 19/85/19 53/53/53
f 21/86/21 19/85/19 54/54/54
f 55/55/55 21/86/21 54/54/54
f 24/87/24 21/86/21 55/55/55
f 56/56/56 24/87/24 55/55/55
f 24/87/24 56/56/56 26/88/26
f 59/59/59 27/89/27 29/90/29
f 27/89/27 59/59/59 60/60/60
f 62/62/62 33/91/33 61/61/61
f 33/91/33 62/62/62 31/92/31
f 35/93/35 63/63/63 39/39/39
f 63/63/63 35/93/35 37/94/37
f 64/95/64 39/39/39 41/41/41
f 39/39/39 64/95/64 35/93/35
f 66/96/66 41/41/41 42/42/42
f 41/41/41 66/96/66 64/95/64
f 68/97/68 66/96/66 43/43/43
f 42/42/42 43/43/43 66/96/66
f 3/77/3 68/97/68 44/44/44
f 43/43/43 44/44/44 68/97/68
f 70/98/70 26/88/26 57/57/57
f 56/56/56 57/57/57 26/88/26
f 72/99/72 57/57/57 58/58/58
f 57/57/57 72/99/72 70/98/70
f 29/90/29 58/58/58 59/59/59
f 58/58/58 29/90/29 72/99/72
f 33/91/33 60/60/60 61/61/61
f 60/60/60 33/91/33 27/89/27
f 37/94/37 31/92/31 63/63/63
f 62/62/62 63/63/63 31/92/31
