# Blender 4.0.1
# www.blender.org
mtllib right_app_button.mtl
o right_app_button
v 0.028662 0.004565 0.052902
v 0.029663 0.004372 0.052301
v 0.028656 0.004695 0.052721
v 0.029695 0.004227 0.052478
v 0.027530 0.004800 0.053058
v 0.027551 0.004916 0.052878
v 0.026425 0.005020 0.052765
v 0.026376 0.004915 0.052934
v 0.025278 0.004902 0.052540
v 0.025352 0.005000 0.052387
v 0.024311 0.004762 0.051902
v 0.024407 0.004858 0.051770
v 0.023543 0.004505 0.051063
v 0.023655 0.004602 0.050957
v 0.023022 0.004149 0.050081
v 0.023145 0.004250 0.050003
v 0.022788 0.003717 0.049024
v 0.022914 0.003828 0.048972
v 0.022854 0.003240 0.047961
v 0.022975 0.003363 0.047937
v 0.023218 0.002749 0.046967
v 0.023326 0.002887 0.046966
v 0.023852 0.002278 0.046109
v 0.023944 0.002432 0.046125
v 0.024715 0.001859 0.045446
v 0.024784 0.002029 0.045474
v 0.025791 0.001707 0.045054
v 0.025747 0.001521 0.045022
v 0.026880 0.001287 0.044866
v 0.026895 0.001486 0.044897
v 0.028034 0.001172 0.044990
v 0.028022 0.001382 0.045011
v 0.029132 0.001185 0.045384
v 0.029094 0.001401 0.045389
v 0.030098 0.001325 0.046022
v 0.030039 0.001544 0.046006
v 0.030868 0.001580 0.046861
v 0.030792 0.001800 0.046818
v 0.031387 0.001937 0.047843
v 0.031302 0.002151 0.047773
v 0.031621 0.002368 0.048901
v 0.031533 0.002574 0.048803
v 0.031471 0.003039 0.049838
v 0.031555 0.002847 0.049963
v 0.031120 0.003515 0.050809
v 0.031193 0.003337 0.050956
v 0.030503 0.003970 0.051650
v 0.030558 0.003809 0.051815
v 0.027325 0.003429 0.048792
v 0.022858 0.002546 0.048276
v 0.022793 0.003019 0.049339
v 0.031560 0.002668 0.050042
v 0.031627 0.002193 0.048979
v 0.028671 0.004213 0.053057
v 0.029702 0.003937 0.052605
v 0.027539 0.004380 0.053242
v 0.026385 0.004426 0.053149
v 0.025287 0.004349 0.052785
v 0.024320 0.004152 0.052173
v 0.023549 0.003851 0.051356
v 0.023028 0.003464 0.050390
v 0.023221 0.002077 0.047274
v 0.023855 0.001644 0.046400
v 0.024718 0.001276 0.045713
v 0.025751 0.000999 0.045261
v 0.026883 0.000831 0.045075
v 0.028038 0.000784 0.045167
v 0.029136 0.000862 0.045531
v 0.030103 0.001059 0.046142
v 0.030871 0.001360 0.046960
v 0.031392 0.001747 0.047927
v 0.031199 0.003136 0.051045
v 0.030565 0.003569 0.051920
vn 0.3433 0.5923 0.7289
vn 0.4134 0.9057 0.0935
vn 0.2847 0.9487 0.1374
vn 0.5657 0.5289 0.6327
vn 0.0986 0.6352 0.7660
vn 0.1468 0.9785 0.1446
vn 0.0132 0.9927 0.1201
vn -0.1493 0.6523 0.7431
vn -0.3862 0.6425 0.6618
vn -0.1100 0.9917 0.0663
vn -0.5948 0.6067 0.5274
vn -0.2150 0.9765 -0.0136
vn -0.7600 0.5490 0.3479
vn -0.2942 0.9490 -0.1131
vn -0.8715 0.4709 0.1367
vn -0.3456 0.9110 -0.2248
vn -0.9226 0.3753 -0.0889
vn -0.3705 0.8646 -0.3395
vn -0.9093 0.2699 -0.3168
vn -0.3666 0.8117 -0.4547
vn -0.8325 0.1607 -0.5303
vn -0.3348 0.7540 -0.5651
vn -0.6964 0.0585 -0.7153
vn -0.2716 0.6964 -0.6643
vn -0.5103 -0.0315 -0.8594
vn -0.1817 0.6416 -0.7452
vn -0.0665 0.5918 -0.8033
vn -0.2854 -0.1009 -0.9531
vn -0.0421 -0.1435 -0.9888
vn 0.0618 0.5571 -0.8282
vn 0.2091 -0.1611 -0.9645
vn 0.2028 0.5338 -0.8210
vn 0.4470 -0.1467 -0.8824
vn 0.3395 0.5285 -0.7781
vn 0.6556 -0.1024 -0.7481
vn 0.4645 0.5397 -0.7021
vn 0.8200 -0.0372 -0.5712
vn 0.5637 0.5674 -0.6002
vn 0.9299 0.0502 -0.3643
vn 0.6322 0.6107 -0.4768
vn 0.9789 0.1482 -0.1410
vn 0.6626 0.6654 -0.3439
vn 0.6533 0.7275 -0.2094
vn 0.9641 0.2509 0.0864
vn 0.6052 0.7914 -0.0862
vn 0.8860 0.3538 0.2996
vn 0.5230 0.8522 0.0174
vn 0.7500 0.4484 0.4862
vn 0.1253 0.9078 -0.4002
vn -0.9826 -0.0817 -0.1670
vn -0.9972 0.0245 0.0706
vn 0.9827 0.0980 0.1572
vn 0.9970 -0.0037 -0.0771
vn 0.3393 0.3844 0.8585
vn 0.5718 0.3416 0.7459
vn 0.0816 0.4018 0.9121
vn -0.1818 0.3928 0.9015
vn -0.4321 0.3593 0.8271
vn -0.6518 0.3003 0.6964
vn -0.8264 0.2226 0.5172
vn -0.9440 0.1285 0.3038
vn -0.9013 -0.1834 -0.3925
vn -0.7584 -0.2747 -0.5911
vn -0.5631 -0.3472 -0.7499
vn -0.3283 -0.3956 -0.8578
vn -0.0699 -0.4160 -0.9067
vn 0.1932 -0.4050 -0.8937
vn 0.4431 -0.3667 -0.8180
vn 0.6606 -0.2979 -0.6891
vn 0.8320 -0.2151 -0.5113
vn 0.9459 -0.1116 -0.3047
vn 0.9036 0.1946 0.3816
vn 0.7640 0.2774 0.5826
vt 0.825400 0.158600
vt 0.810400 0.143300
vt 0.827100 0.155000
vt 0.807800 0.146400
vt 0.845500 0.165700
vt 0.846200 0.162000
vt 0.866400 0.163800
vt 0.866700 0.167400
vt 0.887700 0.163600
vt 0.886500 0.160300
vt 0.906900 0.154500
vt 0.905000 0.151700
vt 0.923100 0.140800
vt 0.920600 0.138600
vt 0.935200 0.123300
vt 0.932300 0.121900
vt 0.942400 0.103300
vt 0.939300 0.102800
vt 0.944200 0.082200
vt 0.941100 0.082500
vt 0.940500 0.061300
vt 0.937500 0.062400
vt 0.931500 0.042000
vt 0.928900 0.043900
vt 0.917800 0.025700
vt 0.915800 0.028300
vt 0.899100 0.016700
vt 0.900400 0.013500
vt 0.880400 0.006200
vt 0.879900 0.009800
vt 0.859200 0.004300
vt 0.859600 0.008000
vt 0.838100 0.007900
vt 0.839600 0.011600
vt 0.818800 0.016900
vt 0.821200 0.020200
vt 0.802400 0.030700
vt 0.805700 0.033300
vt 0.790100 0.048200
vt 0.794000 0.049900
vt 0.782800 0.068400
vt 0.787100 0.069000
vt 0.785300 0.089300
vt 0.781000 0.089700
vt 0.788800 0.109300
vt 0.784800 0.110800
vt 0.797400 0.127700
vt 0.793900 0.130100
vt 0.862000 0.085800
vt 0.188700 0.775400
vt 0.198700 0.775400
vt 0.198700 0.784000
vt 0.188700 0.784000
vt 0.070000 0.775400
vt 0.080000 0.784000
vt 0.070000 0.784000
vt 0.080000 0.775400
vt 0.109600 0.775400
vt 0.119500 0.775400
vt 0.119500 0.784000
vt 0.109600 0.784000
vt 0.129400 0.775400
vt 0.129400 0.784000
vt 0.139300 0.775400
vt 0.139300 0.784000
vt 0.149200 0.775400
vt 0.149200 0.784000
vt 0.159000 0.775400
vt 0.159000 0.784000
vt 0.168900 0.775400
vt 0.168900 0.784000
vt 0.178800 0.775400
vt 0.178800 0.784000
vt 0.208600 0.775400
vt 0.208600 0.784000
vt 0.218500 0.775400
vt 0.218500 0.784000
vt 0.228400 0.775400
vt 0.228400 0.784000
vt 0.238200 0.775400
vt 0.238200 0.784000
vt 0.248100 0.775400
vt 0.248100 0.784000
vt 0.020600 0.775400
vt 0.010700 0.784000
vt 0.010700 0.775400
vt 0.020600 0.784000
vt 0.030500 0.775400
vt 0.030500 0.784000
vt 0.040300 0.775400
vt 0.040300 0.784000
vt 0.050200 0.775400
vt 0.050200 0.784000
vt 0.060100 0.775400
vt 0.060100 0.784000
vt 0.089900 0.784000
vt 0.089900 0.775400
vt 0.099800 0.784000
vt 0.099800 0.775400
s 1
usemtl o_com_sparrow_right_01_Material__79.002
f 1/1/1 2/2/2 3/3/3
f 2/2/2 1/1/1 4/4/4
f 3/3/3 5/5/5 1/1/1
f 5/5/5 3/3/3 6/6/6
f 7/7/7 5/5/5 6/6/6
f 5/5/5 7/7/7 8/8/8
f 9/9/9 8/8/8 10/10/10
f 7/7/7 10/10/10 8/8/8
f 11/11/11 9/9/9 12/12/12
f 10/10/10 12/12/12 9/9/9
f 13/13/13 11/11/11 14/14/14
f 12/12/12 14/14/14 11/11/11
f 15/15/15 14/14/14 16/16/16
f 14/14/14 15/15/15 13/13/13
f 17/17/17 16/16/16 18/18/18
f 16/16/16 17/17/17 15/15/15
f 19/19/19 17/17/17 20/20/20
f 18/18/18 20/20/20 17/17/17
f 21/21/21 19/19/19 22/22/22
f 20/20/20 22/22/22 19/19/19
f 23/23/23 21/21/21 24/24/24
f 22/22/22 24/24/24 21/21/21
f 25/25/25 23/23/23 26/26/26
f 24/24/24 26/26/26 23/23/23
f 26/26/26 27/27/27 25/25/25
f 27/27/27 28/28/28 25/25/25
f 29/29/29 27/27/27 30/30/30
f 27/27/27 29/29/29 28/28/28
f 31/31/31 29/29/29 32/32/32
f 30/30/30 32/32/32 29/29/29
f 33/33/33 31/31/31 34/34/34
f 32/32/32 34/34/34 31/31/31
f 35/35/35 33/33/33 36/36/36
f 34/34/34 36/36/36 33/33/33
f 37/37/37 36/36/36 38/38/38
f 36/36/36 37/37/37 35/35/35
f 39/39/39 38/38/38 40/40/40
f 38/38/38 39/39/39 37/37/37
f 41/41/41 40/40/40 42/42/42
f 40/40/40 41/41/41 39/39/39
f 43/43/43 41/41/41 42/42/42
f 41/41/41 43/43/43 44/44/44
f 45/45/45 44/44/44 43/43/43
f 44/44/44 45/45/45 46/46/46
f 47/47/47 46/46/46 45/45/45
f 46/46/46 47/47/47 48/48/48
f 2/2/2 48/48/48 47/47/47
f 48/48/48 2/2/2 4/4/4
f 2/2/2 49/49/49 3/3/3
f 7/7/7 49/49/49 10/10/10
f 10/10/10 49/49/49 12/12/12
f 12/12/12 49/49/49 14/14/14
f 14/14/14 49/49/49 16/16/16
f 16/16/16 49/49/49 18/18/18
f 18/18/18 49/49/49 20/20/20
f 49/49/49 22/22/22 20/20/20
f 22/22/22 49/49/49 24/24/24
f 24/24/24 49/49/49 26/26/26
f 27/27/27 49/49/49 30/30/30
f 32/32/32 49/49/49 34/34/34
f 49/49/49 36/36/36 34/34/34
f 49/49/49 38/38/38 36/36/36
f 49/49/49 40/40/40 38/38/38
f 49/49/49 42/42/42 40/40/40
f 49/49/49 43/43/43 42/42/42
f 49/49/49 45/45/45 43/43/43
f 45/45/45 49/49/49 47/47/47
f 49/49/49 2/2/2 47/47/47
f 3/3/3 49/49/49 6/6/6
f 6/6/6 49/49/49 7/7/7
f 26/26/26 49/49/49 27/27/27
f 30/30/30 49/49/49 32/32/32
f 17/50/17 19/51/19 50/52/50
f 17/50/17 50/52/50 51/53/51
f 41/54/41 52/55/52 53/56/53
f 52/55/52 41/54/41 44/57/44
f 4/58/4 1/59/1 54/60/54
f 4/58/4 54/60/54 55/61/55
f 1/59/1 5/62/5 56/63/56
f 1/59/1 56/63/56 54/60/54
f 5/62/5 8/64/8 57/65/57
f 5/62/5 57/65/57 56/63/56
f 8/64/8 9/66/9 58/67/58
f 8/64/8 58/67/58 57/65/57
f 9/66/9 11/68/11 59/69/59
f 9/66/9 59/69/59 58/67/58
f 13/70/13 60/71/60 11/68/11
f 11/68/11 60/71/60 59/69/59
f 13/70/13 15/72/15 61/73/61
f 13/70/13 61/73/61 60/71/60
f 15/72/15 17/50/17 51/53/51
f 15/72/15 51/53/51 61/73/61
f 21/74/21 50/52/50 19/51/19
f 50/52/50 21/74/21 62/75/62
f 23/76/23 62/75/62 21/74/21
f 62/75/62 23/76/23 63/77/63
f 25/78/25 63/77/63 23/76/23
f 63/77/63 25/78/25 64/79/64
f 28/80/28 64/79/64 25/78/25
f 64/79/64 28/80/28 65/81/65
f 29/82/29 65/81/65 28/80/28
f 65/81/65 29/82/29 66/83/66
f 31/84/31 66/85/66 29/86/29
f 66/85/66 31/84/31 67/87/67
f 33/88/33 67/87/67 31/84/31
f 67/87/67 33/88/33 68/89/68
f 35/90/35 68/89/68 33/88/33
f 68/89/68 35/90/35 69/91/69
f 37/92/37 69/91/69 35/90/35
f 69/91/69 37/92/37 70/93/70
f 39/94/39 70/93/70 37/92/37
f 70/93/70 39/94/39 71/95/71
f 41/54/41 71/95/71 39/94/39
f 71/95/71 41/54/41 53/56/53
f 72/96/72 44/57/44 46/97/46
f 44/57/44 72/96/72 52/55/52
f 73/98/73 46/97/46 48/99/48
f 46/97/46 73/98/73 72/96/72
f 55/61/55 48/99/48 4/58/4
f 48/99/48 55/61/55 73/98/73
