<svg width="90" height="166" viewBox="0 0 90 166" fill="none" xmlns="http://www.w3.org/2000/svg">
<g clip-path="url(#clip0_6198_50892)">
<path d="M0.919685 22.9402C1.84969 26.7302 4.46969 29.8702 8.00969 31.5202C17.0697 35.7302 29.9497 39.1402 44.4197 40.7302C56.8097 42.0802 68.3397 41.8802 77.5197 40.4502C80.7797 39.9402 83.6997 38.1202 85.5797 35.4102C88.7997 30.7702 90.1297 25.3702 89.4997 19.9702C89.1897 17.3802 87.9297 15.1302 86.0997 13.1802C84.5897 11.5802 82.7197 10.3702 80.6897 9.55018C72.3697 6.18018 61.8497 3.39018 50.2497 1.75018C35.8497 -0.289822 22.5597 -0.169822 12.7397 1.66018C8.50969 2.45018 4.71969 4.92018 2.48969 8.60018C1.81969 9.70018 1.30969 10.8702 0.979691 12.0802C0.00969052 15.6202 0.0296854 19.3502 0.919685 22.9402ZM5.99969 27.5402C5.49969 31.3402 21.4997 36.5702 41.7297 39.2302C61.9597 41.8902 78.7597 40.9502 79.2597 37.1502C79.7597 33.3502 63.7597 28.1202 43.5297 25.4602C23.2997 22.8002 6.48969 23.7402 5.99969 27.5402Z" stroke="white" stroke-width="0.5" stroke-miterlimit="10" stroke-linecap="round" stroke-linejoin="round"/>
<path d="M12.8199 60.82C12.3799 72.1 22.9099 81.26 38.0299 81.85C53.1499 82.43 67.5799 73.3 68.0199 62.02C68.4599 50.73 56.5499 42.48 41.4399 41.9C26.3199 41.32 13.2599 49.53 12.8199 60.82Z" stroke="white" stroke-width="0.25" stroke-miterlimit="10" stroke-linecap="round" stroke-linejoin="round"/>
<path d="M34.5398 25.2002L32.4298 38.5602L32.2198 39.8602C31.9398 41.6202 30.6698 43.0502 28.9598 43.5702C28.9498 43.5702 28.9498 43.5702 28.9498 43.5702C19.6098 46.4102 12.8598 52.9002 12.5498 60.9602C12.5298 61.5902 12.5398 62.2202 12.5798 62.8402C12.6098 63.2502 12.6298 63.6602 12.6398 64.0802C12.7698 72.8102 15.5998 78.7202 16.9798 84.0302C19.8698 95.1302 20.3398 113.56 21.3998 129.52C21.8798 136.91 24.4598 152.48 25.4998 158.88C25.6798 159.97 28.4498 165.83 37.1698 165.22C44.3698 164.72 46.4198 159.04 46.4498 158.07C47.2098 136.77 49.4498 118.89 48.8698 107.7C48.4998 100.59 48.4798 93.2602 53.2498 85.1502C55.7598 80.8702 59.9998 76.7602 62.6298 73.1402C62.8998 72.7702 63.1898 72.4102 63.4998 72.0602C66.0598 69.1402 67.6198 65.7602 67.7598 62.1602C67.9598 56.8902 65.4798 52.2902 61.2298 48.8202C61.2198 48.8102 61.2098 48.8002 61.1998 48.8002C59.5198 47.4102 58.7498 45.2002 59.1098 43.0502L59.3898 41.3502L61.3598 29.5202" stroke="white" stroke-width="0.5" stroke-miterlimit="10" stroke-linecap="round" stroke-linejoin="round"/>
<path d="M14.49 59.6997C14.08 70.3197 23.99 78.9397 38.21 79.4897C52.44 80.0397 66.02 71.4497 66.43 60.8297C66.85 50.2097 55.65 42.4497 41.42 41.8997C27.2 41.3497 14.9 49.0797 14.49 59.6997Z" stroke="white" stroke-width="0.25" stroke-miterlimit="10" stroke-linecap="round" stroke-linejoin="round"/>
<path d="M42.6201 54.2596L42.5901 55.9296C42.6901 57.6696 44.6801 59.0596 47.1001 59.0596C49.5301 59.0596 51.5201 57.6696 51.6201 55.9296L51.5901 54.2596C51.3401 52.6296 49.4301 51.3496 47.1001 51.3496C44.7801 51.3496 42.8701 52.6196 42.6201 54.2596Z" stroke="white" stroke-width="0.5" stroke-miterlimit="10" stroke-linecap="round" stroke-linejoin="round"/>
<path d="M47.1099 57.8896C44.6136 57.8896 42.5899 56.4256 42.5899 54.6196C42.5899 52.8136 44.6136 51.3496 47.1099 51.3496C49.6062 51.3496 51.6299 52.8136 51.6299 54.6196C51.6299 56.4256 49.6062 57.8896 47.1099 57.8896Z" stroke="white" stroke-width="0.25" stroke-miterlimit="10" stroke-linecap="round" stroke-linejoin="round"/>
<path d="M36.0499 64.7904C36.1599 66.6404 38.2599 68.1104 40.8299 68.1104C43.4099 68.1104 45.5099 66.6404 45.6099 64.7904L45.5799 63.0204C45.3099 61.2904 43.2899 59.9404 40.8199 59.9404C38.3599 59.9404 36.3299 61.2904 36.0599 63.0204L36.0499 64.7904Z" stroke="white" stroke-width="0.5" stroke-miterlimit="10" stroke-linecap="round" stroke-linejoin="round"/>
<path d="M20.26 54.4196C20.26 57.4696 23.57 59.9496 27.64 59.9496C31.72 59.9496 35.02 57.4696 35.02 54.4196C35.02 51.3696 31.71 48.8896 27.64 48.8896C23.56 48.8896 20.26 51.3696 20.26 54.4196Z" stroke="white" stroke-width="0.5" stroke-miterlimit="10" stroke-linecap="round" stroke-linejoin="round"/>
<path d="M27.6399 55.6196C24.3317 55.6196 21.6499 53.6094 21.6499 51.1297C21.6499 48.6499 24.3317 46.6396 27.6399 46.6396C30.9481 46.6396 33.6299 48.6499 33.6299 51.1297C33.6299 53.6094 30.9481 55.6196 27.6399 55.6196Z" stroke="white" stroke-width="0.5" stroke-miterlimit="10" stroke-linecap="round" stroke-linejoin="round"/>
<path d="M36.0501 63.4102C36.0501 65.3202 38.1901 66.8702 40.8301 66.8702C43.4701 66.8702 45.6201 65.3202 45.6201 63.4102C45.6201 61.5002 43.4801 59.9502 40.8301 59.9502C38.1901 59.9502 36.0501 61.5002 36.0501 63.4102Z" stroke="white" stroke-width="0.25" stroke-miterlimit="10" stroke-linecap="round" stroke-linejoin="round"/>
<path d="M42.4698 73.9496C42.4698 74.2596 42.7198 74.5097 43.0298 74.5097C43.3398 74.5097 43.5898 74.2596 43.5898 73.9496C43.5898 73.6396 43.3398 73.3896 43.0298 73.3896C42.7198 73.3896 42.4698 73.6396 42.4698 73.9496Z" fill="white"/>
<path d="M42.4698 73.9496C42.4698 74.2596 42.7198 74.5097 43.0298 74.5097C43.3398 74.5097 43.5898 74.2596 43.5898 73.9496C43.5898 73.6396 43.3398 73.3896 43.0298 73.3896C42.7198 73.3896 42.4698 73.6396 42.4698 73.9496Z" stroke="white" stroke-width="0.25" stroke-miterlimit="10" stroke-linecap="round" stroke-linejoin="round"/>
<path d="M22.1299 66.8797C22.1299 68.4897 23.8099 69.7897 25.8799 69.7897C27.9499 69.7897 29.6299 68.4897 29.6299 66.8797C29.6299 65.2697 27.9499 63.9697 25.8799 63.9697C23.8099 63.9697 22.1299 65.2697 22.1299 66.8797Z" stroke="white" stroke-width="0.5" stroke-miterlimit="10" stroke-linecap="round" stroke-linejoin="round"/>
<path d="M24.23 67.2098H27.53C27.64 67.2098 27.73 67.1198 27.73 67.0098V66.4598C27.73 66.3498 27.64 66.2598 27.53 66.2598H24.23C24.12 66.2598 24.03 66.3498 24.03 66.4598V67.0098C24.04 67.1298 24.12 67.2098 24.23 67.2098Z" fill="white"/>
<path d="M33.3495 73.6797C33.2095 73.6797 33.0895 73.7297 33.0295 73.8097C32.9995 73.8497 32.9795 73.8997 32.9795 73.9497C32.9795 74.0997 33.1395 74.2197 33.3395 74.2197C33.4695 74.2197 33.5895 74.1697 33.6495 74.0897C33.6795 74.0497 33.6995 74.0097 33.6995 73.9597C33.6995 73.8097 33.5495 73.6897 33.3495 73.6797Z" fill="white"/>
<path d="M34.4797 75.6601C33.1997 75.6201 32.2097 74.8101 32.2697 73.8701C32.2797 73.7001 32.3197 73.5401 32.3897 73.3901C32.3997 73.3801 32.3997 73.3801 32.3997 73.3801C33.0797 73.0101 34.0397 73.1001 34.5697 73.6001L35.6497 74.6101L36.2297 75.1501C35.7897 75.4901 35.1597 75.6901 34.4797 75.6601ZM34.6997 72.2301C35.9797 72.2701 36.9697 73.0801 36.9097 74.0201C36.8897 74.2801 36.7997 74.5201 36.6497 74.7301C36.1897 74.3001 35.4397 73.6001 35.1997 73.3701C35.1797 73.3501 35.1597 73.3301 35.1497 73.3201L35.1397 73.3101C34.7197 72.9301 34.0797 72.6901 33.3597 72.6801C33.3497 72.6801 33.3497 72.6801 33.3397 72.6801C33.2197 72.6801 33.0997 72.6901 32.9797 72.7001C33.4197 72.4001 34.0297 72.2101 34.6997 72.2301ZM34.7297 71.6501C33.0097 71.5901 31.5497 72.5701 31.4697 73.8401C31.3897 75.1101 32.7197 76.1901 34.4397 76.2501C36.1597 76.3101 37.6197 75.3301 37.6997 74.0501C37.7797 72.7801 36.4497 71.7101 34.7297 71.6501Z" fill="white"/>
<path d="M30.3701 73.9501C30.3701 75.6701 32.2601 77.0601 34.5901 77.0601C36.9201 77.0601 38.8101 75.6701 38.8101 73.9501C38.8101 72.2301 36.9201 70.8301 34.5901 70.8301C32.2501 70.8301 30.3701 72.2301 30.3701 73.9501Z" stroke="white" stroke-width="0.5" stroke-miterlimit="10"/>
<path d="M40.4 63.8L39.6 64.9L39 64.8L40.1 63.5L39.3 62H39.9L40.5 63.2L41.4 62.2L41.9 62.3L40.8 63.6L41.6 65.1L41.1 65L40.4 63.8Z" fill="white"/>
<path d="M47.1 56.1L46.7 56L46.8 55.1L46 53L46.5 53.1L47.1 54.7L48.2 53.4H48.7L47.3 55.1L47.1 56.1Z" fill="white"/>
</g>
<defs>
<clipPath id="clip0_6198_50892">
<rect width="89.9" height="165.51" fill="white" transform="matrix(-1 0 0 1 89.8999 0)"/>
</clipPath>
</defs>
</svg>
