<svg width="90" height="166" viewBox="0 0 90 166" fill="none" xmlns="http://www.w3.org/2000/svg">
<g clip-path="url(#clip0_6198_50860)">
<path d="M88.9802 22.9402C88.0502 26.7302 85.4302 29.8702 81.8902 31.5202C72.8302 35.7302 59.9502 39.1402 45.4802 40.7302C33.0902 42.0802 21.5602 41.8802 12.3802 40.4502C9.12021 39.9402 6.20021 38.1202 4.32021 35.4102C1.10021 30.7702 -0.229786 25.3702 0.400214 19.9702C0.710214 17.3802 1.97021 15.1302 3.80021 13.1802C5.31021 11.5802 7.18021 10.3702 9.21021 9.55018C17.5302 6.18018 28.0502 3.39018 39.6502 1.75018C54.0502 -0.289822 67.3402 -0.169822 77.1602 1.66018C81.3902 2.45018 85.1802 4.92018 87.4102 8.60018C88.0802 9.70018 88.5902 10.8702 88.9202 12.0802C89.8902 15.6202 89.8702 19.3502 88.9802 22.9402ZM83.9002 27.5402C84.4002 31.3402 68.4002 36.5702 48.1702 39.2302C27.9402 41.8902 11.1402 40.9502 10.6402 37.1502C10.1402 33.3502 26.1402 28.1202 46.3702 25.4602C66.6002 22.8002 83.4102 23.7402 83.9002 27.5402Z" stroke="white" stroke-width="0.5" stroke-miterlimit="10" stroke-linecap="round" stroke-linejoin="round"/>
<path d="M77.08 60.82C77.52 72.1 66.99 81.26 51.87 81.85C36.75 82.43 22.32 73.3 21.88 62.02C21.44 50.73 33.35 42.48 48.46 41.9C63.58 41.32 76.64 49.53 77.08 60.82Z" stroke="white" stroke-width="0.25" stroke-miterlimit="10" stroke-linecap="round" stroke-linejoin="round"/>
<path d="M55.3601 25.2002L57.4701 38.5602L57.6801 39.8602C57.9601 41.6202 59.2301 43.0502 60.9401 43.5702C60.9501 43.5702 60.9501 43.5702 60.9501 43.5702C70.2901 46.4102 77.0401 52.9002 77.3501 60.9602C77.3701 61.5902 77.3601 62.2202 77.3201 62.8402C77.2901 63.2502 77.2702 63.6602 77.2602 64.0802C77.1302 72.8102 74.3001 78.7202 72.9201 84.0302C70.0301 95.1302 69.5601 113.56 68.5001 129.52C68.0201 136.91 65.4402 152.48 64.4002 158.88C64.2202 159.97 61.4501 165.83 52.7301 165.22C45.5301 164.72 43.4801 159.04 43.4501 158.07C42.6901 136.77 40.4501 118.89 41.0301 107.7C41.4001 100.59 41.4202 93.2602 36.6502 85.1502C34.1402 80.8702 29.9001 76.7602 27.2701 73.1402C27.0001 72.7702 26.7101 72.4102 26.4001 72.0602C23.8401 69.1402 22.2801 65.7602 22.1401 62.1602C21.9401 56.8902 24.4201 52.2902 28.6701 48.8202C28.6801 48.8102 28.6901 48.8002 28.7001 48.8002C30.3801 47.4102 31.1501 45.2002 30.7901 43.0502L30.5101 41.3502L28.5401 29.5202" stroke="white" stroke-width="0.5" stroke-miterlimit="10" stroke-linecap="round" stroke-linejoin="round"/>
<path d="M75.4099 59.6997C75.8199 70.3197 65.9099 78.9397 51.6899 79.4897C37.4599 80.0397 23.8799 71.4497 23.4699 60.8297C23.0499 50.2097 34.2499 42.4497 48.4799 41.8997C62.6999 41.3497 74.9999 49.0797 75.4099 59.6997Z" stroke="white" stroke-width="0.25" stroke-miterlimit="10" stroke-linecap="round" stroke-linejoin="round"/>
<path d="M47.2798 54.2596L47.3098 55.9296C47.2098 57.6696 45.2198 59.0596 42.7998 59.0596C40.3698 59.0596 38.3798 57.6696 38.2798 55.9296L38.3098 54.2596C38.5598 52.6296 40.4698 51.3496 42.7998 51.3496C45.1198 51.3496 47.0298 52.6196 47.2798 54.2596Z" stroke="white" stroke-width="0.5" stroke-miterlimit="10" stroke-linecap="round" stroke-linejoin="round"/>
<path d="M42.79 57.8896C45.2863 57.8896 47.31 56.4256 47.31 54.6196C47.31 52.8136 45.2863 51.3496 42.79 51.3496C40.2937 51.3496 38.27 52.8136 38.27 54.6196C38.27 56.4256 40.2937 57.8896 42.79 57.8896Z" stroke="white" stroke-width="0.25" stroke-miterlimit="10" stroke-linecap="round" stroke-linejoin="round"/>
<path d="M53.85 64.7904C53.74 66.6404 51.64 68.1104 49.07 68.1104C46.49 68.1104 44.39 66.6404 44.29 64.7904L44.32 63.0204C44.59 61.2904 46.61 59.9404 49.08 59.9404C51.54 59.9404 53.57 61.2904 53.84 63.0204L53.85 64.7904Z" stroke="white" stroke-width="0.5" stroke-miterlimit="10" stroke-linecap="round" stroke-linejoin="round"/>
<path d="M69.6399 54.4196C69.6399 57.4696 66.3299 59.9496 62.2599 59.9496C58.1799 59.9496 54.8799 57.4696 54.8799 54.4196C54.8799 51.3696 58.1899 48.8896 62.2599 48.8896C66.3399 48.8896 69.6399 51.3696 69.6399 54.4196Z" stroke="white" stroke-width="0.5" stroke-miterlimit="10" stroke-linecap="round" stroke-linejoin="round"/>
<path d="M62.26 55.6196C65.5682 55.6196 68.25 53.6094 68.25 51.1297C68.25 48.6499 65.5682 46.6396 62.26 46.6396C58.9518 46.6396 56.27 48.6499 56.27 51.1297C56.27 53.6094 58.9518 55.6196 62.26 55.6196Z" stroke="white" stroke-width="0.5" stroke-miterlimit="10" stroke-linecap="round" stroke-linejoin="round"/>
<path d="M53.8498 63.4102C53.8498 65.3202 51.7098 66.8702 49.0698 66.8702C46.4298 66.8702 44.2798 65.3202 44.2798 63.4102C44.2798 61.5002 46.4198 59.9502 49.0698 59.9502C51.7098 59.9502 53.8498 61.5002 53.8498 63.4102Z" stroke="white" stroke-width="0.25" stroke-miterlimit="10" stroke-linecap="round" stroke-linejoin="round"/>
<path d="M47.4301 73.9496C47.4301 74.2596 47.1801 74.5097 46.8701 74.5097C46.5601 74.5097 46.3101 74.2596 46.3101 73.9496C46.3101 73.6396 46.5601 73.3896 46.8701 73.3896C47.1801 73.3896 47.4301 73.6396 47.4301 73.9496Z" fill="white"/>
<path d="M47.4301 73.9496C47.4301 74.2596 47.1801 74.5097 46.8701 74.5097C46.5601 74.5097 46.3101 74.2596 46.3101 73.9496C46.3101 73.6396 46.5601 73.3896 46.8701 73.3896C47.1801 73.3896 47.4301 73.6396 47.4301 73.9496Z" stroke="white" stroke-width="0.25" stroke-miterlimit="10" stroke-linecap="round" stroke-linejoin="round"/>
<path d="M43.1449 55.6699C43.4449 55.6699 43.6449 55.4699 43.6449 55.1699C43.6449 54.8699 43.4449 54.7699 43.1449 54.7699L42.2449 54.8699V55.7699L43.1449 55.6699ZM42.1449 54.4699H42.9449C43.2449 54.4699 43.3449 54.2699 43.3449 53.9699C43.3449 53.7699 43.1449 53.5699 42.8449 53.5699H41.9449L42.1449 54.4699ZM43.4449 54.5699C43.7449 54.5699 43.9449 54.7699 44.0449 55.1699C44.0449 55.6699 43.7449 55.9699 43.1449 55.9699L41.7449 56.0699L41.5449 53.2699L42.9449 53.1699C43.4449 53.1699 43.8449 53.4699 43.8449 53.8699C43.9449 54.2699 43.6449 54.4699 43.4449 54.5699Z" fill="white"/>
<path d="M48.9147 62.373L48.5148 63.573L49.5148 63.473L48.9147 62.373ZM50.0148 64.573L49.7148 63.973L48.3147 64.073L48.1147 64.773H47.6147L48.7148 61.873H49.1147L50.5148 64.673L50.0148 64.573Z" fill="white"/>
<path d="M67.77 66.8797C67.77 68.4897 66.09 69.7897 64.02 69.7897C61.95 69.7897 60.27 68.4897 60.27 66.8797C60.27 65.2697 61.95 63.9697 64.02 63.9697C66.09 63.9697 67.77 65.2697 67.77 66.8797Z" stroke="white" stroke-width="0.5" stroke-miterlimit="10" stroke-linecap="round" stroke-linejoin="round"/>
<path d="M65.6699 67.2098H62.3699C62.2599 67.2098 62.1699 67.1198 62.1699 67.0098V66.4598C62.1699 66.3498 62.2599 66.2598 62.3699 66.2598H65.6699C65.7799 66.2598 65.8699 66.3498 65.8699 66.4598V67.0098C65.8599 67.1298 65.7799 67.2098 65.6699 67.2098Z" fill="white"/>
<path d="M54.08 73.6797C53.94 73.6797 53.82 73.7297 53.76 73.8097C53.73 73.8497 53.71 73.8997 53.71 73.9497C53.71 74.0997 53.87 74.2197 54.07 74.2197C54.2 74.2197 54.32 74.1697 54.38 74.0897C54.41 74.0497 54.43 74.0097 54.43 73.9597C54.43 73.8097 54.28 73.6897 54.08 73.6797Z" fill="white"/>
<path d="M55.2102 75.6601C53.9302 75.6201 52.9402 74.8101 53.0002 73.8701C53.0102 73.7001 53.0502 73.5401 53.1202 73.3901C53.1302 73.3801 53.1302 73.3801 53.1302 73.3801C53.8102 73.0101 54.7702 73.1001 55.3002 73.6001L56.3802 74.6101L56.9602 75.1501C56.5202 75.4901 55.8902 75.6901 55.2102 75.6601ZM55.4302 72.2301C56.7102 72.2701 57.7002 73.0801 57.6402 74.0201C57.6202 74.2801 57.5302 74.5201 57.3802 74.7301C56.9202 74.3001 56.1702 73.6001 55.9302 73.3701C55.9102 73.3501 55.8902 73.3301 55.8802 73.3201L55.8702 73.3101C55.4502 72.9301 54.8102 72.6901 54.0902 72.6801C54.0802 72.6801 54.0802 72.6801 54.0702 72.6801C53.9502 72.6801 53.8302 72.6901 53.7102 72.7001C54.1502 72.4001 54.7602 72.2101 55.4302 72.2301ZM55.4602 71.6501C53.7402 71.5901 52.2802 72.5701 52.2002 73.8401C52.1202 75.1101 53.4502 76.1901 55.1702 76.2501C56.8902 76.3101 58.3502 75.3301 58.4302 74.0501C58.5102 72.7801 57.1802 71.7101 55.4602 71.6501Z" fill="white"/>
<path d="M59.5298 73.9501C59.5298 75.6701 57.6398 77.0601 55.3098 77.0601C52.9798 77.0601 51.0898 75.6701 51.0898 73.9501C51.0898 72.2301 52.9798 70.8301 55.3098 70.8301C57.6498 70.8301 59.5298 72.2301 59.5298 73.9501Z" stroke="white" stroke-width="0.5" stroke-miterlimit="10"/>
</g>
<defs>
<clipPath id="clip0_6198_50860">
<rect width="89.9" height="165.51" fill="white"/>
</clipPath>
</defs>
</svg>
