<svg width="81" height="121" viewBox="0 0 81 121" fill="none" xmlns="http://www.w3.org/2000/svg">
<path d="M41.2 5.7999C49.3 1.0999 58.9 -0.600104 63.5 1.3999C68.1 3.3999 72.8 7.0999 75.8 10.7999C83.6 19.9999 84.4 40.3999 60.4 70.6999C37.2 99.9999 14.1 119.5 14.6 120.1M14.3 90.7999C16.1 75.0999 19 69.1999 19.5 60.2999C20 50.4999 14.2 46.1999 11.1 34.2999C8.7 25.1999 11 10.0999 25.8 5.5999C38 1.8999 50.9 7.7999 56.8 20.3999C59.1 24.8999 59.6 31.0999 59.3 34.7999M40.6 93.6999C39.7 96.7999 36.3 107.4 32.7 112.2C30.6 115 26.3 116 22.4 115.2C21.6 115 20.9 114.8 20.1 114.5" stroke="white" stroke-width="0.5" stroke-miterlimit="10" stroke-linecap="round" stroke-linejoin="round"/>
<path d="M43.7002 6.90022C60.6002 -0.699783 68.7002 5.10022 65.3002 19.8002" stroke="white" stroke-width="0.25" stroke-miterlimit="10" stroke-linecap="round" stroke-linejoin="round"/>
<path d="M22.4 115.1C20.7 116.6 18 118.8 16.1 120C15.3 120.5 14.3 120.8 13.3 120.7C5.9 120.2 1.1 115.7 0.3 107.7C0.2 106.7 0.499994 105.6 1.19999 104.8C5.79999 99.0002 17.4 88.7002 40.9 60.9002C55.2 43.9002 63 29.7002 65.3 19.7002C64 19.7002 60.3 19.7002 56.7 20.3002" stroke="white" stroke-width="0.5" stroke-miterlimit="10" stroke-linecap="round" stroke-linejoin="round"/>
<path d="M17.4001 50C19.3001 56.3 26.1001 57.7 23.4001 65.7C22.4001 68.6 20.8001 69 19.3001 68.8L15.5001 67.4C14.5001 67.1 14.3001 64.9 15.1001 62.8C17.3001 56.7 15.5001 56.2 15.7001 50.5C15.7001 50.2 15.9001 50 16.2001 50H17.4001Z" stroke="white" stroke-width="0.5" stroke-miterlimit="10" stroke-linecap="round" stroke-linejoin="round"/>
<path d="M15.5 67.4C16.7 67.7 18.3 66.8 19.2 63.7C21 57.8 15.7 57.4 15.7 50.5" stroke="white" stroke-width="0.25" stroke-miterlimit="10" stroke-linecap="round" stroke-linejoin="round"/>
<path d="M40.7002 18.8999C40.0002 18.8999 39.3002 18.9999 38.6002 19.2999C35.2002 20.4999 33.4002 24.4999 34.7002 28.1999C35.7002 31.0999 38.4002 32.9999 41.2002 32.9999C41.9002 32.9999 42.6002 32.8999 43.3002 32.5999C46.7002 31.3999 48.5002 27.3999 47.2002 23.6999C46.2002 20.7999 43.5002 18.8999 40.7002 18.8999Z" stroke="white" stroke-width="0.25" stroke-miterlimit="10" stroke-linecap="round" stroke-linejoin="round"/>
<path d="M48.0002 24.6998C48.0002 27.8998 45.4002 30.5998 42.1002 30.5998C38.8002 30.5998 36.2002 27.9998 36.2002 24.6998C36.2002 21.4998 38.8002 18.7998 42.1002 18.7998C45.4002 18.7998 48.0002 21.3998 48.0002 24.6998Z" stroke="white" stroke-width="0.5" stroke-miterlimit="10" stroke-linecap="round" stroke-linejoin="round"/>
<path d="M26.0001 32.7999C24.2001 33.8999 21.7001 33.1999 20.4001 31.0999C19.1001 28.9999 19.6001 26.4999 21.4001 25.2999L22.5001 24.5999C24.3001 23.5999 26.7001 24.5999 27.8001 26.6999C28.9001 28.7999 28.4001 31.2999 26.5001 32.2999L26.0001 32.7999Z" stroke="white" stroke-width="0.5" stroke-miterlimit="10" stroke-linecap="round" stroke-linejoin="round"/>
<path d="M27.9002 26.7C29.0002 28.8 28.5002 31.3 26.6002 32.3C24.8002 33.3 22.4002 32.3 21.3002 30.2C20.2002 28.1 20.7002 25.6 22.6002 24.6C24.3002 23.7 26.7002 24.6 27.9002 26.7Z" stroke="white" stroke-width="0.25" stroke-miterlimit="10" stroke-linecap="round" stroke-linejoin="round"/>
<path d="M33.3002 43.5999C31.5002 44.7999 29.0002 44.0999 27.6002 42.0999C26.3002 40.0999 26.7002 37.4999 28.5002 36.2999L29.3002 35.8999C31.1002 34.6999 33.6002 35.2999 34.9002 37.2999C36.2002 39.2999 35.8002 41.7999 34.0002 42.9999L33.3002 43.5999Z" stroke="white" stroke-width="0.5" stroke-miterlimit="10" stroke-linecap="round" stroke-linejoin="round"/>
<path d="M34.9 37.2999C36.2 39.2999 35.8 41.7999 34 42.9999C32.2 44.1999 29.7 43.4999 28.4 41.5999C27.1 39.5999 27.5 37.0999 29.3 35.8999C31.1 34.6999 33.6 35.2999 34.9 37.2999Z" stroke="white" stroke-width="0.25" stroke-miterlimit="10" stroke-linecap="round" stroke-linejoin="round"/>
<path d="M55.2002 36.9001C55.4002 39.1001 54.0002 41.1001 52.0002 41.3001C50.0002 41.5001 48.1002 39.9001 47.9002 37.7001C47.7002 35.5001 49.1002 33.5001 51.1002 33.3001C53.1002 33.1001 55.0002 34.7001 55.2002 36.9001ZM42.6002 38.1001C40.5002 38.1001 38.7002 39.9001 38.7002 42.2001C38.7002 44.4001 40.4002 46.3001 42.6002 46.3001C44.7002 46.3001 46.5002 44.5001 46.5002 42.2001C46.5002 40.0001 44.7002 38.1001 42.6002 38.1001ZM42.6002 40.7001C43.3002 40.7001 44.0002 41.4001 44.0002 42.2001C44.0002 43.0001 43.4002 43.7001 42.6002 43.7001C41.9002 43.7001 41.2002 43.0001 41.2002 42.2001C41.2002 41.4001 41.8002 40.7001 42.6002 40.7001Z" stroke="white" stroke-width="0.5" stroke-miterlimit="10" stroke-linecap="round" stroke-linejoin="round"/>
<path d="M51.5998 37.5998C51.3998 37.5998 51.1998 37.3998 51.1998 37.0998C51.1998 36.7998 51.3998 36.5998 51.5998 36.5998C51.7998 36.5998 51.9998 36.7998 51.9998 37.0998C51.9998 37.3998 51.8998 37.5998 51.5998 37.5998ZM51.5998 36.2998C51.1998 36.2998 50.7998 36.6998 50.7998 37.0998C50.7998 37.5998 51.0998 37.8998 51.5998 37.8998C52.0998 37.8998 52.3998 37.4998 52.3998 37.0998C52.3998 36.6998 51.9998 36.2998 51.5998 36.2998Z" fill="white"/>
<path d="M52.9999 36.3998V38.1998C52.9999 38.2998 52.8999 38.3998 52.7999 38.3998H50.5999C50.4999 38.3998 50.3999 38.2998 50.3999 38.1998V36.3998C50.3999 36.2998 50.4999 36.1998 50.5999 36.1998H50.9999C51.1999 35.9998 51.3999 35.7998 51.6999 35.7998C51.9999 35.7998 52.1999 35.8998 52.3999 36.1998H52.7999C52.8999 36.1998 52.9999 36.2998 52.9999 36.3998Z" stroke="white" stroke-width="0.4" stroke-miterlimit="10" stroke-linecap="round" stroke-linejoin="round"/>
<path d="M24.8998 29.5C25.1998 29.5 25.3998 29.3 25.3998 29C25.3998 28.7 25.1998 28.6 24.8998 28.6L23.9998 28.7V29.6L24.8998 29.5ZM23.8998 28.3H24.6998C24.9998 28.3 25.0998 28.1 25.0998 27.8C25.0998 27.6 24.8998 27.4 24.5998 27.4H23.6998L23.8998 28.3ZM25.1998 28.4C25.4998 28.4 25.6998 28.6 25.7998 29C25.7998 29.5 25.4998 29.8 24.8998 29.8L23.4998 29.9L23.2998 27.1L24.6998 27C25.1998 27 25.5998 27.3 25.5998 27.7C25.6998 28.1 25.3998 28.3 25.1998 28.4Z" fill="white"/>
<path d="M31.5002 38.3999L31.1002 39.5999L32.1002 39.4999L31.5002 38.3999ZM32.6002 40.5999L32.3002 39.9999L30.9002 40.0999L30.7002 40.7999H30.2002L31.3002 37.8999H31.7002L33.1002 40.6999L32.6002 40.5999Z" fill="white"/>
<path d="M36.5 11.7001C36.5 12.0001 36.8 12.3001 37.1 12.3001C37.4 12.3001 37.7 12.0001 37.7 11.7001C37.7 11.4001 37.4 11.1001 37.1 11.1001C36.8 11.1001 36.5 11.4001 36.5 11.7001Z" stroke="white" stroke-width="0.25" stroke-miterlimit="10" stroke-linecap="round" stroke-linejoin="round"/>
</svg>
