<svg width="81" height="121" viewBox="0 0 81 121" fill="none" xmlns="http://www.w3.org/2000/svg">
<path d="M39.8002 5.7999C31.7002 1.0999 22.1002 -0.600104 17.5002 1.3999C12.9002 3.3999 8.20022 7.0999 5.20022 10.7999C-2.59978 19.9999 -3.39978 40.3999 20.6002 70.6999C43.7002 99.9999 66.8002 119.4 66.3002 120M66.7002 90.7999C64.9002 75.0999 62.0002 69.1999 61.5002 60.2999C61.0002 50.4999 66.8002 46.1999 69.9002 34.2999C72.3002 25.1999 70.0002 10.0999 55.2002 5.5999C43.0002 1.8999 30.1002 7.7999 24.2002 20.3999C21.9002 24.8999 21.4002 31.0999 21.7002 34.7999M40.4002 93.6999C41.3002 96.7999 44.7002 107.4 48.3002 112.2C50.4002 115 54.7002 116 58.6002 115.2C59.4002 115 60.1002 114.8 60.9002 114.5" stroke="white" stroke-width="0.5" stroke-miterlimit="10" stroke-linecap="round" stroke-linejoin="round"/>
<path d="M37.2999 6.90022C20.3999 -0.699783 12.2999 5.10022 15.6999 19.8002" stroke="white" stroke-width="0.25" stroke-miterlimit="10" stroke-linecap="round" stroke-linejoin="round"/>
<path d="M58.6001 115.1C60.3001 116.6 63.0001 118.8 64.9001 120C65.7001 120.5 66.7001 120.8 67.7001 120.7C75.1001 120.2 79.9001 115.7 80.7001 107.7C80.8001 106.7 80.5001 105.6 79.8001 104.8C75.2001 98.9998 63.6001 88.6998 40.1001 60.8998C25.7001 43.9998 17.9001 29.7998 15.6001 19.7998C16.9001 19.7998 20.6001 19.7998 24.2001 20.3998" stroke="white" stroke-width="0.5" stroke-miterlimit="10" stroke-linecap="round" stroke-linejoin="round"/>
<path d="M63.5 50C61.6 56.3 54.8 57.7 57.5 65.7C58.5 68.6 60.1 69 61.6 68.8L65.4 67.4C66.4 67.1 66.6 64.9 65.8 62.8C63.6 56.7 65.4 56.2 65.2 50.5C65.2 50.2 65 50 64.7 50H63.5Z" stroke="white" stroke-width="0.5" stroke-miterlimit="10" stroke-linecap="round" stroke-linejoin="round"/>
<path d="M65.4002 67.4001C64.2002 67.7001 62.6002 66.8001 61.7002 63.7001C59.9002 57.8001 65.2002 57.4001 65.2002 50.5001M44.4002 11.7001C44.4002 12.0001 44.1002 12.3001 43.8002 12.3001C43.5002 12.3001 43.2002 12.0001 43.2002 11.7001C43.2002 11.4001 43.5002 11.1001 43.8002 11.1001C44.1002 11.1001 44.4002 11.4001 44.4002 11.7001Z" stroke="white" stroke-width="0.25" stroke-miterlimit="10" stroke-linecap="round" stroke-linejoin="round"/>
<path d="M40.2998 18.8999C40.9998 18.8999 41.6999 18.9999 42.3999 19.2999C45.7999 20.4999 47.5998 24.4999 46.2998 28.1999C45.2998 31.0999 42.5998 32.9999 39.7998 32.9999C39.0998 32.9999 38.3999 32.8999 37.6999 32.5999C34.2998 31.3999 32.4998 27.3999 33.7998 23.6999C34.7998 20.7999 37.4998 18.8999 40.2998 18.8999Z" stroke="white" stroke-width="0.25" stroke-miterlimit="10" stroke-linecap="round" stroke-linejoin="round"/>
<path d="M32.8999 24.6998C32.8999 27.8998 35.4999 30.5998 38.7999 30.5998C42.0999 30.5998 44.6999 27.9998 44.6999 24.6998C44.6999 21.4998 42.0999 18.7998 38.7999 18.7998C35.4999 18.7998 32.8999 21.3998 32.8999 24.6998Z" stroke="white" stroke-width="0.5" stroke-miterlimit="10" stroke-linecap="round" stroke-linejoin="round"/>
<path d="M55.0001 32.7999C56.8001 33.8999 59.3001 33.1999 60.6001 31.0999C61.9001 28.9999 61.4001 26.4999 59.6001 25.2999L58.5001 24.5999C56.7001 23.5999 54.3001 24.5999 53.2001 26.6999C52.1001 28.7999 52.6001 31.2999 54.5001 32.2999L55.0001 32.7999Z" stroke="white" stroke-width="0.5" stroke-miterlimit="10" stroke-linecap="round" stroke-linejoin="round"/>
<path d="M53.1 26.7C52 28.8 52.5 31.3 54.4 32.3C56.2 33.3 58.6 32.3 59.7 30.2C60.8 28.1 60.3 25.6 58.4 24.6C56.6 23.7 54.2 24.6 53.1 26.7Z" stroke="white" stroke-width="0.25" stroke-miterlimit="10" stroke-linecap="round" stroke-linejoin="round"/>
<path d="M47.7002 43.5999C49.5002 44.7999 52.0002 44.0999 53.4002 42.0999C54.7002 40.0999 54.3002 37.4999 52.5002 36.2999L51.7002 35.8999C49.9002 34.6999 47.4002 35.2999 46.1002 37.2999C44.8002 39.2999 45.2002 41.7999 47.0002 42.9999L47.7002 43.5999Z" stroke="white" stroke-width="0.5" stroke-miterlimit="10" stroke-linecap="round" stroke-linejoin="round"/>
<path d="M46.1002 37.2999C44.8002 39.2999 45.2002 41.7999 47.0002 42.9999C48.8002 44.1999 51.3002 43.4999 52.6002 41.5999C53.9002 39.5999 53.5002 37.0999 51.7002 35.8999C49.9002 34.6999 47.4002 35.2999 46.1002 37.2999Z" stroke="white" stroke-width="0.25" stroke-miterlimit="10" stroke-linecap="round" stroke-linejoin="round"/>
<path d="M25.7002 36.9001C25.5002 39.1001 26.9002 41.1001 28.9002 41.3001C30.9002 41.5001 32.8002 39.9001 33.0002 37.7001C33.2002 35.5001 31.8002 33.5001 29.8002 33.3001C27.8002 33.1001 26.0002 34.7001 25.7002 36.9001ZM34.5002 42.2001C34.5002 44.4001 36.2002 46.3001 38.4002 46.3001C40.5002 46.3001 42.3002 44.5001 42.3002 42.2001C42.3002 40.0001 40.6002 38.1001 38.4002 38.1001C36.2002 38.1001 34.5002 40.0001 34.5002 42.2001Z" stroke="white" stroke-width="0.5" stroke-miterlimit="10" stroke-linecap="round" stroke-linejoin="round"/>
<path d="M49.2999 39.5002L48.4999 40.6002L47.8999 40.5002L48.9999 39.2002L48.1999 37.7002H48.7999L49.3999 38.9002L50.2999 37.9002L50.7999 38.0002L49.6999 39.3002L50.4999 40.8002L49.9999 40.7002L49.2999 39.5002Z" fill="white"/>
<path d="M56.3998 29.9999L55.9998 29.8999L56.0998 28.9999L55.2998 26.8999L55.7998 26.9999L56.3998 28.5999L57.4998 27.2999H57.9998L56.5998 28.9999L56.3998 29.9999Z" fill="white"/>
<path d="M28.3998 38.6001L30.5998 38.5001M28.2998 37.4001L30.4998 37.3001M28.2998 36.2001L30.4998 36.1001M38.3998 40.7001C37.6998 40.7001 36.9998 41.4001 36.9998 42.2001C36.9998 43.0001 37.5998 43.7001 38.3998 43.7001C39.0998 43.7001 39.7998 43.0001 39.7998 42.2001C39.6998 41.4001 39.0998 40.7001 38.3998 40.7001Z" stroke="white" stroke-width="0.5" stroke-miterlimit="10" stroke-linecap="round" stroke-linejoin="round"/>
</svg>
