<svg width="127" height="124" viewBox="0 0 127 124" fill="none" xmlns="http://www.w3.org/2000/svg">
<path d="M104.6 32.6L106.6 32.1L106.5 31.9L106.4 32.1C115.4 34.2 120 36.5 122.4 38.6C124.8 40.8 125 42.9 125.1 45L125.5 52.1C125.5 52.2 125.6 52.3 125.8 52.3C125.9 52.3 126 52.2 126 52C126 52 126 52 125.6 44.9C125.5 42.8 125.2 40.4 122.7 38.2C120.2 35.9 115.5 33.7 106.4 31.5H106.3L104.3 32C104.2 32 104.1 32.2 104.1 32.3C104.4 32.5 104.5 32.6 104.6 32.6Z" fill="white"/>
<path d="M34.0904 54.805C42.3904 48.705 43.0467 49.8176 47.6467 48.4176C52.2467 47.0176 55.9467 46.9176 60.6467 46.2176C60.7467 46.2176 60.8467 46.1176 60.8467 45.9176C60.8467 45.8176 60.7467 45.7176 60.5467 45.7176C55.8467 46.4176 52.0467 46.5176 47.4467 47.9176C42.8467 49.3176 42.0905 48.305 33.7905 54.405C33.6905 54.505 33.6904 54.605 33.6904 54.805C33.7904 54.905 33.9904 54.905 34.0904 54.805Z" fill="white"/>
<path d="M62.4999 36.1001C55.2999 37.0001 50.4999 37.1001 43.1999 40.8001C35.8999 44.6001 25.9999 51.9001 8.59991 67.3001C6.39991 69.3001 3.8999 72.0001 3.8999 75.2001C3.8999 75.4001 3.8999 75.7001 3.8999 75.9001C3.8999 76.0001 3.99992 76.1001 4.19992 76.1001C4.29992 76.1001 4.3999 76.0001 4.3999 75.8001C4.3999 75.6001 4.3999 75.3001 4.3999 75.1001C4.3999 72.3001 6.69991 69.6001 8.99991 67.6001C26.3999 52.3001 36.1999 44.9001 43.4999 41.2001C50.7999 37.5001 55.3999 37.4001 62.6999 36.5001C62.7999 36.5001 62.8999 36.4001 62.8999 36.2001C62.7999 36.2001 62.6999 36.1001 62.4999 36.1001Z" fill="white"/>
<path d="M18.7 65.9997C18.7 65.9997 19.1 65.4997 19.8 64.7997C21.9 62.5997 26.5 57.7997 28.7 56.0997C29.6 55.3997 32.1 54.6997 36 54.6997C39.1 54.6997 43.2 55.0997 48.3 56.2997C56.9 58.2997 68 61.8997 77.3 66.3997C82 68.6997 86.2 71.1997 89.4 73.8997C92.6 76.5997 94.8 79.4997 95.6 82.4997C96 84.0997 96.1 85.5997 96.1 87.0997C96.1 98.5997 86.1 108.4 82.5 111.1C80.1 113 78.5 113.8 77.3 114.4C77.2 114.5 77.1 114.6 77.2 114.7C77.3 114.8 77.4 114.9 77.5 114.8C78.7 114.2 80.3 113.3 82.8 111.4C86.5 108.6 96.6 98.7997 96.6 86.9997C96.6 85.4997 96.4 83.8997 96 82.2997C95.2 79.1997 92.9 76.1997 89.7 73.4997C79.9 65.2997 61.3 58.7997 48.4 55.7997C43.3 54.5997 39.2 54.1997 36 54.1997C32 54.1997 29.5 54.8997 28.4 55.6997C26.8 56.8997 24.3 59.3997 22.1 61.5997C20 63.7997 18.2 65.6997 18.2 65.6997C18.1 65.7997 18.1 65.9997 18.2 66.0997C18.5 66.0997 18.6 66.0997 18.7 65.9997Z" fill="white"/>
<path d="M102 31.5999C102.2 29.2999 102.3 29.0999 102.3 27.0999C102.3 19.1999 100.8 13.1999 98.3003 9.0999C95.8003 4.9999 92.4003 2.7999 88.7003 2.4999L78.3003 0.999902C77.9003 0.999902 77.5003 0.899902 77.1003 0.899902C72.6003 0.899902 68.2003 2.9999 63.9003 6.5999C51.0003 17.3999 39.7003 42.2999 35.8003 68.9999C35.8003 69.0999 35.8003 69.1999 35.8003 69.2999C35.8003 70.1999 36.4003 70.9999 37.3003 71.1999L46.0003 73.5999C46.2003 73.5999 46.4003 73.6999 46.5003 73.6999C47.5003 73.6999 48.4003 72.9999 48.5003 71.8999C50.6003 54.7999 56.0003 37.6999 63.4003 24.6999C69.9003 13.2999 77.3003 6.0999 84.2003 4.2999L84.1003 4.0999L84.0003 4.2999C88.4003 8.0999 92.3003 15.6999 92.3003 25.7999C92.3003 27.7999 92.5003 27.841 92.1003 29.941C92.1003 30.041 92.2003 30.241 92.3003 30.241C92.4003 30.241 92.6003 30.141 92.6003 30.041C92.9003 27.941 92.8003 27.7999 92.8003 25.7999C92.8003 15.5999 88.9003 7.7999 84.4003 3.8999L84.2003 3.7999C77.1003 5.6999 69.6003 12.9999 63.1003 24.4999C55.7003 37.5999 50.2003 54.6999 48.1003 71.8999C48.0003 72.6999 47.3003 73.1999 46.6003 73.1999C46.5003 73.1999 46.3003 73.1999 46.2003 73.0999L37.5003 70.6999C36.8003 70.4999 36.4003 69.8999 36.4003 69.2999V69.0999C39.0003 51.3999 44.9003 34.3999 52.3003 21.8999C56.0003 15.6999 60.1003 10.4999 64.3003 6.9999C68.5003 3.3999 72.9003 1.4999 77.2003 1.4999C77.6003 1.4999 78.0003 1.4999 78.4003 1.5999L88.7003 2.9999C92.2003 3.2999 95.5003 5.3999 97.9003 9.3999C100.3 13.3999 101.8 19.2999 101.8 27.0999C101.8 29.0999 101.7 29.2999 101.5 31.4999C101.5 31.5999 101.6 31.7999 101.7 31.7999C101.9 31.8999 102 31.7999 102 31.5999Z" fill="white"/>
<path d="M84.2 4.1999C85.4 3.8999 86.5 3.6999 87.7 3.6999C88 3.6999 88.4 3.6999 88.7 3.6999C91.4 3.8999 93.8 5.2999 95.8 7.6999C99.2 11.7999 101.1 18.5999 101.1 27.0999C101.1 28.9999 100.93 29.2836 100.73 31.2836L100.83 31.3836L100.93 31.2836C101.13 29.1836 101.3 28.8999 101.3 26.9999C101.3 18.3999 99.5 11.5999 96 7.3999C94 4.9999 91.4 3.5999 88.7 3.3999C88.4 3.3999 88 3.3999 87.7 3.3999C86.5 3.3999 85.4 3.5999 84.2 3.8999L84 4.0999L84.2 4.1999Z" fill="white"/>
<path d="M82.8001 109.8L82.6001 109.6C75.7001 115.8 73.2001 118.8 68.6001 121.5C67.7001 122 65.9001 122.5 63.4001 122.5C59.9001 122.5 54.9001 121.6 48.6001 118.5C35.9001 112.5 28.2001 110.3 21.0001 108.5C19.4001 108.1 17.7001 107.6 16.0001 107.2C7.60009 104.8 1.6001 97.2001 0.600098 87.8001C0.500098 87.2001 0.500092 86.6001 0.500092 86.0001C0.500092 83.6001 1.00009 81.7001 2.00009 80.4001C2.30009 79.9001 2.60009 79.5001 2.90009 79.0001L2.7001 78.9001L3.00009 79.0001C5.30009 76.7001 5.80008 75.2001 5.80008 74.3001C5.80008 74.2001 5.80008 74.1001 5.80008 74.0001H5.6001H5.80008H5.6001L5.7001 74.2001L16.8001 66.2001L16.7001 66.0001L16.8001 66.2001C17.3001 66.1001 17.8001 66.0001 18.4001 66.0001C20.5001 66.0001 23.6001 66.8001 27.3001 67.9001C31.0001 69.0001 35.4001 70.5001 40.3001 71.7001C47.6001 73.6001 55.3001 75.3001 61.9001 77.1001C68.6001 78.9001 74.3001 80.8001 77.5001 83.0001C84.5001 87.9001 86.6001 93.6001 86.6001 98.5001C86.6001 101.2 86.0001 103.7 85.2001 105.6C84.4001 107.5 83.4001 109 82.8001 109.5V109.8L83.0001 110C83.7001 109.3 84.7001 107.9 85.6001 105.9C86.4001 103.9 87.1001 101.4 87.1001 98.6001C87.1001 93.6001 84.9001 87.7001 77.8001 82.7001C74.4001 80.4001 68.7001 78.5001 62.0001 76.7001C55.3001 74.9001 47.6001 73.2001 40.4001 71.3001C35.5001 70.0001 31.1001 68.6001 27.4001 67.5001C23.7001 66.4001 20.6001 65.6001 18.4001 65.6001C17.7001 65.6001 17.2001 65.7001 16.6001 65.8001H16.5001L5.40009 73.8001L5.30008 74.0001V74.2001C5.30008 75.0001 4.9001 76.3001 2.6001 78.6001V78.7001C2.3001 79.2001 2.0001 79.6001 1.7001 80.1001C0.700104 81.5001 0.100098 83.5001 0.100098 86.0001C0.100098 86.6001 0.100104 87.2001 0.200104 87.8001C1.2001 97.4001 7.30009 105.2 15.9001 107.7C17.6001 108.2 19.3001 108.6 20.9001 109C28.1001 110.9 35.7001 113 48.4001 119C54.8001 122.1 59.8001 123 63.4001 123C66.0001 123 67.8001 122.5 68.9001 121.9C73.7001 119.2 76.2001 116.2 83.0001 110L82.8001 109.8Z" fill="white"/>
<path d="M32.8 85.2997L32.7 85.4997C46.7 89.7997 55.8 93.0997 61.5 96.7997C64.3 98.5997 66.3 100.5 67.5 102.6C68.7 104.7 69.3 107 69.3 109.7C69.3 113.5 67.9 116 65.8 117.7C63.7 119.4 60.8 120.1 57.7 120.1C54.6 120.1 51.4 119.3 48.6 118C32.6 110.3 24.9 109.1 16 106.6C7.7 104.3 2.00001 96.5997 1.10001 87.6997C1.00001 87.0997 1 86.4997 1 85.9997C1 83.3997 1.69999 81.6997 2.89999 80.6997C4.09999 79.5997 5.9 79.1997 8 79.1997C14.1 79.1997 23.5 82.7997 32.7 85.5997L32.8 85.2997L32.9 85.0997C23.8 82.2997 14.4 78.6997 8.10001 78.6997C5.80001 78.6997 4.00001 79.1997 2.60001 80.2997C1.30001 81.4997 0.5 83.2997 0.5 85.9997C0.5 86.4997 0.500006 87.0997 0.600006 87.6997C1.50001 96.7997 7.29999 104.6 15.8 107C24.7 109.5 32.4 110.7 48.3 118.4C51.1 119.8 54.4 120.5 57.6 120.5C60.7 120.5 63.8 119.7 66 118C68.2 116.2 69.7 113.5 69.7 109.6C69.7 104 67.4 99.9997 61.7 96.2997C56 92.5997 46.8 89.2997 32.8 84.9997V85.2997Z" fill="white"/>
<path d="M7.4003 72.7997C8.4003 72.4997 9.6003 72.3997 10.9003 72.3997C17.4003 72.3997 26.6003 75.6997 34.0003 77.8997C39.1003 79.3997 47.7003 81.3997 55.7003 84.2997C63.7003 87.1997 71.2003 90.8997 74.2003 95.6997C76.5003 99.3997 77.5003 103.1 77.5003 106.5C77.5003 112 75.0003 116.8 71.5003 119.8V120H71.7003C75.2003 117 77.7003 112.1 77.7003 106.5C77.7003 103 76.7003 99.2997 74.4003 95.5997C71.3003 90.6997 63.8003 86.9997 55.8003 84.0997C47.8003 81.1997 39.3003 79.1997 34.1003 77.6997C26.7003 75.4997 17.5003 72.1997 10.9003 72.1997C9.6003 72.1997 8.4003 72.2997 7.4003 72.5997L7.30029 72.7997H7.4003Z" fill="white"/>
<path d="M23.5001 76.5999V76.4999C23.1001 76.4999 22.7001 76.6999 22.4001 76.9999L21.9001 77.4999C21.7001 77.6999 21.6001 77.8999 21.6001 78.0999C21.6001 78.4999 21.8001 78.8999 22.3001 78.9999L40.0001 84.0999C40.1001 84.0999 40.3001 84.1999 40.4001 84.1999C40.8001 84.1999 41.2001 83.9999 41.6001 83.6999L42.0001 83.2999C42.2001 83.0999 42.3001 82.8999 42.3001 82.5999C42.3001 82.1999 42.0001 81.7999 41.6001 81.5999L24.0001 76.4999C23.9001 76.4999 23.7001 76.3999 23.6001 76.3999V76.5999V76.6999C23.7001 76.6999 23.8001 76.6999 24.0001 76.7999L41.6001 81.8999C41.9001 81.9999 42.1001 82.2999 42.1001 82.5999C42.1001 82.7999 42.0001 82.9999 41.9001 83.0999L41.5001 83.4999C41.2001 83.7999 40.9001 83.8999 40.5001 83.8999C40.4001 83.8999 40.3001 83.8999 40.1001 83.7999L22.4001 78.6999C22.1001 78.5999 21.9001 78.2999 21.9001 77.9999C21.9001 77.7999 22.0001 77.6999 22.1001 77.4999L22.6001 76.9999C22.9001 76.6999 23.2001 76.5999 23.6001 76.5999H23.5001ZM23.5001 77.0999H23.7001L41.3001 82.1999C41.4001 82.1999 41.5001 82.3999 41.5001 82.3999V82.4999L41.4001 82.6999L41.0001 83.0999C40.8001 83.2999 40.6001 83.3999 40.4001 83.3999H40.2001L22.5001 78.2999C22.4001 78.2999 22.4001 78.1999 22.3001 78.0999V77.9999L22.4001 77.7999L22.9001 77.2999C23.0001 77.1999 23.3001 77.0999 23.5001 77.0999L23.6001 76.9999L23.5001 76.8999C23.2001 76.8999 22.9001 76.9999 22.7001 77.2999L22.2001 77.7999C22.1001 77.8999 22.1001 77.9999 22.1001 78.0999V78.1999C22.1001 78.2999 22.2001 78.4999 22.4001 78.4999L40.1001 83.5999C40.2001 83.5999 40.3001 83.5999 40.4001 83.5999C40.7001 83.5999 41.0001 83.4999 41.2001 83.1999L41.6001 82.7999C41.7001 82.6999 41.8001 82.4999 41.8001 82.3999V82.2999C41.8001 82.1999 41.7001 81.9999 41.4001 81.8999L23.8001 76.7999C23.7001 76.7999 23.6001 76.7999 23.5001 76.7999L23.4001 76.8999L23.5001 77.0999Z" fill="white"/>
<path d="M73.0001 95.8999H72.9001C73.0001 96.1999 73.0001 96.4999 73.0001 96.7999C73.0001 98.2999 72.1001 99.6999 70.8001 99.9999C70.6001 99.9999 70.4001 100.1 70.2001 100.1C68.8001 100.1 67.5001 98.9999 67.1001 97.2999C67.0001 96.9999 67.0001 96.6999 67.0001 96.3999C67.0001 94.8999 67.9001 93.4999 69.2001 93.1999C69.4001 93.1999 69.6001 93.0999 69.8001 93.0999C71.2001 93.0999 72.5001 94.1999 72.9001 95.8999H73.0001H73.1001C72.7001 94.0999 71.3001 92.8999 69.7001 92.8999C69.5001 92.8999 69.3001 92.8999 69.0001 92.9999C67.5001 93.2999 66.6001 94.7999 66.6001 96.3999C66.6001 96.6999 66.6001 97.0999 66.7001 97.3999C67.1001 99.1999 68.5001 100.4 70.1001 100.4C70.3001 100.4 70.5001 100.4 70.8001 100.3C72.3001 99.9999 73.2001 98.4999 73.2001 96.8999C73.2001 96.5999 73.2001 96.2999 73.1001 95.8999H73.0001Z" fill="white"/>
<path d="M72.5002 96.0997L72.3002 96.1997C72.3002 96.3997 72.4002 96.5997 72.4002 96.7997C72.4002 97.8997 71.8002 98.7997 70.9002 98.9997C70.8002 98.9997 70.6002 98.9997 70.5002 98.9997C69.6002 98.9997 68.6002 98.1997 68.4002 97.0997C68.3002 96.8997 68.3002 96.6997 68.3002 96.4997C68.3002 95.3997 68.9002 94.4997 69.8002 94.2997C69.9002 94.2997 70.1002 94.2997 70.2002 94.2997C71.1002 94.2997 72.1002 95.0997 72.3002 96.1997L72.5002 96.0997L72.7002 95.9997C72.4002 94.6997 71.3002 93.6997 70.1002 93.6997C69.9002 93.6997 69.7002 93.6997 69.6002 93.7997C68.4002 94.0997 67.7002 95.1997 67.7002 96.4997C67.7002 96.6997 67.7002 96.9997 67.8002 97.1997C68.1002 98.4997 69.2002 99.4997 70.4002 99.4997C70.6002 99.4997 70.8002 99.4997 70.9002 99.3997C72.1002 99.0997 72.8002 97.9997 72.8002 96.6997C72.8002 96.4997 72.8002 96.1997 72.7002 95.9997L72.5002 96.0997Z" fill="white"/>
<path d="M84.1001 101.7H84.0001V102.1C84.0001 102.4 83.9001 102.7 83.6001 102.9L81.7001 104.7L81.6001 104.8L81.4001 104.7H81.3001H81.4001V104.6V104.1C81.4001 103.8 81.6001 103.5 81.8001 103.3L83.6001 101.8L83.7001 101.7H83.8001C83.9001 101.7 84.0001 101.8 84.0001 101.9H84.1001H84.2001C84.2001 101.6 84.0001 101.5 83.8001 101.5C83.7001 101.5 83.6001 101.5 83.5001 101.6L83.4001 101.7L81.6001 103.2C81.3001 103.5 81.1001 103.8 81.1001 104.2V104.7V104.8C81.2001 105 81.3001 105.1 81.5001 105.1C81.6001 105.1 81.7001 105.1 81.8001 105L83.7001 103.2C84.0001 102.9 84.1001 102.6 84.1001 102.2V101.8V101.8V101.7Z" fill="white"/>
<path d="M83.5001 101.6H83.4001V102C83.4001 102.3 83.3001 102.6 83.0001 102.8L81.2001 104.5L81.3001 104.6H81.4001V104.5V104C81.4001 103.7 81.6001 103.4 81.8001 103.2L83.5001 101.6L83.4001 101.5V101.6H83.5001H83.4001H83.5001H83.6001V101.5L83.5001 101.4H83.4001L81.6001 102.9C81.3001 103.2 81.1001 103.5 81.1001 103.9V104.4V104.5L81.2001 104.6H81.3001L83.1001 102.9C83.4001 102.6 83.5001 102.3 83.5001 101.9V101.5V101.6Z" fill="white"/>
<path d="M120.751 47.1045C121.251 47.5045 120.934 47.3541 121.434 47.7541C122.634 48.7541 123.773 49.741 124.573 50.841C125.373 51.941 126.2 53.1 126.2 54.4C126 59.1 125.8 61.5 125 65.6C124.7 66.9 123.9 68.4 122.5 70.1C114.5 79.4 94.6002 93.3 85.7002 99.3C85.0002 99.8 84.2002 100.1 83.4002 100.1C81.7002 100.1 80.4002 99.1 79.5002 97.6C78.6002 96.1 78.0002 94.1 78.0002 92.1C78.0002 89.5 78.9002 87.1 80.8002 86.1C88.7002 81.6 101.1 73.6 106.2 69.9C106.7 69.5 107.2 69.3 107.8 69.3C108.5 69.2 109.1 69.2 109.7 69.2H109.8C112.3 67.7 114.6 66.2 116.9 64.7C117 64.6 117.2 64.5 117.3 64.4C118.5 63.6 119.5 62.9 120.4 62.1C121.2 61.5 121.9 60.9 122.4 60.3C122.5 60.2 122.5 60.1 122.4 60C122.4 60 122.2 59.7 121.9 59.3C121.7 59 121.4 58.7 121 58.3C120.9 58.2 121.008 58.5238 120.908 58.6238C120.808 58.7238 120.808 58.9238 120.908 59.0238C121.308 59.4238 121.3 59.4 121.5 59.7C121.7 59.9 121.8 60.1 121.9 60.2C122 60.3 122 60.4 122 60.4L122.2 60.3L122 60.1C121.4 60.7 120.8 61.3 120 61.9C119.1 62.6 118.1 63.4 116.9 64.1C116.8 64.2 116.6 64.3 116.5 64.4C114.2 65.9 111.8 67.4 109.4 68.9L109.5 69.1V68.9C108.9 68.9 108.2 69 107.5 69C106.8 69.1 106.2 69.3 105.6 69.7C100.5 73.4 88.1002 81.4 80.2002 85.9C78.1002 87.1 77.2002 89.7 77.2002 92.4C77.2002 94.4 77.7002 96.6 78.7002 98.2C79.7002 99.8 81.2002 101 83.1002 101C84.0002 101 84.9002 100.7 85.7002 100.2C94.6002 94.2 114.6 80.3 122.6 70.9C124.1 69.2 124.9 67.6 125.2 66.2C126.1 62.1 126.2 59.6 126.5 54.9C126.5 53.5 126 52.3 125.1 51.1C124.3 50 123.1 48.9 121.9 47.9C121.4 47.5 121.154 47.0675 120.654 46.6675C120.554 46.5675 120.753 46.8674 120.653 46.9674C120.753 46.4674 120.651 47.0045 120.751 47.1045Z" fill="white"/>
<path d="M120.806 48.1299C123.106 50.1299 124.8 52.0998 124.8 54.4998C124.8 55.9998 124.1 57.6998 122.1 59.6998V59.8998H122.3C124.2 57.8998 125 56.0998 125 54.4998C125 51.8998 123.106 49.8021 120.806 47.8021V47.9704L120.806 48.1299Z" fill="white"/>
<path d="M120.989 58.0997H120.897C120.797 58.9997 120.589 59.7997 120.489 60.5997C120.389 60.8997 120.389 61.0997 120.189 61.3997C119.289 62.0997 118.289 62.8997 117.089 63.5997L117.189 63.7997V63.5997C117.089 63.5997 116.889 63.5997 116.789 63.5997H116.689C108.389 63.2997 97.6888 61.2997 88.0888 58.7997C78.4888 56.3997 69.9888 53.4997 66.1888 51.5997C62.1888 49.5997 60.5888 46.2997 60.5888 42.9997C60.5888 40.4997 61.5888 37.9997 63.1888 36.1997C64.2888 34.9997 65.7888 33.3997 68.4888 32.0997C71.1888 30.7997 75.0888 29.7997 81.1888 29.7997C81.3888 29.7997 81.4888 29.7997 81.6888 29.7997C97.2888 29.8997 108.189 32.9997 114.589 36.3997C117.489 37.8997 119.489 40.5997 120.089 43.7997C120.689 46.8997 121.089 50.6997 121.089 54.2997C121.089 55.5997 120.989 56.9997 120.889 58.1997L120.989 58.0997H121.189C121.289 56.7997 121.389 55.4997 121.389 54.0997C121.389 50.3997 120.989 46.5997 120.389 43.4997C119.689 40.1997 117.589 37.3997 114.589 35.7997C107.989 32.2997 97.0888 29.2997 81.4888 29.1997C81.2888 29.1997 81.1888 29.1997 80.9888 29.1997C74.8888 29.1997 70.8888 30.1997 68.0888 31.5997C65.2888 32.9997 63.7888 34.5997 62.6888 35.8997C60.9888 37.7997 59.9888 40.3997 59.9888 42.9997C59.9888 46.3997 61.6888 49.9997 65.8888 51.9997C69.7888 53.9997 78.2888 56.7997 87.8888 59.2997C97.4888 61.6997 108.189 63.7997 116.589 64.0997H116.689C116.889 64.0997 116.989 64.0997 117.189 64.0997H117.289C118.489 63.2997 119.489 62.5997 120.389 61.7997L120.489 61.6997C120.589 61.3997 120.689 61.0997 120.789 60.6997C120.889 59.8997 121.189 58.9997 121.189 58.0997H120.989Z" fill="white"/>
<path d="M113.9 58.6998H113.7C113.4 60.0998 112.2 61.0998 110.7 61.0998H110.6C97.0001 60.5998 75.8001 54.7998 69.5001 51.6998C66.2001 50.0998 64.9001 47.4998 64.9001 44.9998C64.9001 42.9998 65.7001 41.0998 67.0001 39.6998C68.8001 37.7998 71.8001 34.5998 81.6001 34.5998C81.7001 34.5998 81.9001 34.5998 82.0001 34.5998C94.7001 34.6998 103.5 37.0998 108.8 39.6998C111.1 40.8998 112.8 42.9998 113.3 45.4998C113.8 47.8998 114.1 50.8998 114.1 53.6998C114.1 55.4998 114 57.1998 113.7 58.6998H113.9C114.2 57.1998 114.3 55.3998 114.3 53.5998C114.3 50.7998 114 47.7998 113.5 45.2998C113 42.7998 111.3 40.5998 108.9 39.3998C103.6 36.6998 94.7001 34.3998 82.0001 34.2998C81.9001 34.2998 81.7001 34.2998 81.6001 34.2998C71.7001 34.2998 68.6001 37.4998 66.8001 39.4998C65.4001 40.8998 64.6001 42.8998 64.6001 44.9998C64.6001 47.5998 66.0001 50.3998 69.3001 51.9998C75.7001 55.0998 96.9001 60.8998 110.5 61.3998H110.6C112.2 61.3998 113.464 60.3363 113.868 58.8484L113.9 58.6998Z" fill="white"/>
<path d="M109.5 68.6001L109.4 68.7001L109.5 68.8001H110.6L110.7 68.7001L110.6 68.6001H109.5Z" fill="white"/>
</svg>
